<svg xmlns="http://www.w3.org/2000/svg" xmlns:xlink="http://www.w3.org/1999/xlink" viewBox="0 0 1454.13 298.41"><defs><style>.cls-1{fill:none;}.cls-2{clip-path:url(#clip-path);}.cls-3{fill:#fff;}.cls-4{fill:#a81f25;}</style><clipPath id="clip-path" transform="translate(-25.93 -577)"><rect class="cls-1" width="1501" height="1501"/></clipPath></defs><g id="Layer_2" data-name="Layer 2"><g id="Layer_1-2" data-name="Layer 1"><g class="cls-2"><path class="cls-3" d="M786.88,627.38c4.3.11,8.36.25,11.85,3,3.32,3.89,5.54,8.48,7.85,13,2.57,4.79,5.66,9.25,8.67,13.76l3.86,5.92,1.95,3,9.44,14.47,3.76,5.76,7.42,11.39,20.63,31.6,1.13,1.73q1.59,2.41,3.17,4.85l1.84,2.81q1.77,2.68,3.55,5.36l1-115h24q0,33,0,66,0,15.35,0,30.67,0,13.37,0,26.72,0,7.08,0,14.16v13.31c0,1.63,0,3.26,0,4.89v10.44C897,798,897,798,896,799c-2.9.32-5.72.51-8.62.62l-2.41.22c-3.71.12-6,0-8.88-2.51A80.47,80.47,0,0,1,871,790l-1.69-2.56c-1.75-2.67-3.44-5.36-5.12-8.06l-3.71-5.88c-.59-1-1.19-1.89-1.8-2.86-2.2-3.46-4.46-6.87-6.74-10.26-5.49-8.17-10.83-16.42-16.18-24.67q-4.56-7-9.14-14l-1.86-2.87c-1.27-1.93-2.53-3.87-3.8-5.81l-6.18-9.48-2.07-3.18-4-6.08-1.8-2.75c-.52-.81-1.05-1.61-1.58-2.43q-1.68-2.55-3.37-5.09l-1,115H778c-1.87-1.87-1.13-5-1.13-7.53v-2.09c0-2.33,0-4.66,0-7,0-1.67,0-3.33,0-5q0-6.79,0-13.59,0-7.09,0-14.2,0-11.91,0-23.83,0-13.81,0-27.61,0-11.82,0-23.65,0-7.08,0-14.15,0-6.64,0-13.29v-4.9c0-2.21,0-4.43,0-6.65v-3.77C777.13,626.07,782.26,627.42,786.88,627.38Z" transform="translate(-25.93 -577)"/><path class="cls-3" d="M57,647l2.37,0c8.93.11,16.09.69,24.26,4.57,17.11,7.17,34.7,8.38,52.37,2.41q2.17-1,4.31-2.12c5.63-2.65,11.44-2.68,17.58-2.82,2.23-.06,4.45-.17,6.68-.29l4.55-.15,2.16-.11c3.78-.06,5.49.3,8.48,2.69,2.09,2.61,4.1,5.22,6,8l1.8,2.6c6.48,9.84,2.47,28.13,1.07,39.21-.12,1-.25,2-.38,3-1.42,10.45-1.42,10.45-3.24,14-5.31,3.71-9.14,4.59-15.53,4.5h-2.41l-5,0c-2.54,0-5.08,0-7.62,0l-4.9,0h-2.27A26.84,26.84,0,0,1,134,719c-3.71-7.42-.72-20.27,1-28,2-2,2-2,4.17-2.23,9.66.16,9.66.16,13.83,1.23a15.63,15.63,0,0,1,1.54,6.13c.08.81.17,1.61.26,2.44s.17,1.69.26,2.55l.28,2.58L156,710h17c2.58-15.63,2.19-31.21,2-47-13.52.1-25.86,1.25-38.79,5.31-2.21.69-4.43,1.33-6.66,2l-4.11,1.23-3.63,1.09c-2.93,1.13-2.93,1.13-3.92,3.57-3.23,10.27-3.17,21.53-3,32.19,0,2,0,4,0,6l.06,8.23q.06,7.22.09,14.42,0,3.82,0,7.64c0,7.85-.34,15.58-1.06,23.39,3.18,1.47,6.37,2.92,9.56,4.38l2.72,1.24c12.95,5.89,23.79,7.37,37.36,2.35a32.65,32.65,0,0,0,4.36-2,73.65,73.65,0,0,0,2.12-9.44c.19-.86.37-1.73.56-2.62,2.19-10.12,2.19-10.12.32-19.94-6.65-1.7-13.85-1.34-20.68-1.52l-3-.1-2.73-.08A20,20,0,0,1,137,738l-1-3c4.59-5.33,10.19-7.12,17-8,2.78-.09,5.53-.14,8.31-.12h2.28c13.87.15,13.87.15,18.41,3,5.87,6.23,4.24,19.54,4.15,27.65-.94,21.52-.94,21.52-7.8,28-12.46,7.19-26.67,14-41.35,11.43a154.48,154.48,0,0,1-16.25-6.15c-8.47-3.42-13.54-2.66-21.87.46-18.14,6.35-29.71,6-47.38-1.62l-2.61-1.11c-5.35-2.43-8.64-4.64-11.89-9.58a17.94,17.94,0,0,1-1.25-4.94c-.19-1.19-.19-1.19-.39-2.4-.12-.88-.24-1.76-.36-2.66s-.35-1.94-.53-2.93c-.85-6-.74-12.13-.78-18.19,0-1.27-.06-2.53-.09-3.83s0-2.43,0-3.68,0-2.21,0-3.34c.58-3.72,1.88-5.36,4.47-8,4.47-2.24,10.59-1.23,15.5-1.25l3.77-.06c8.26,0,17.39-.05,23.92,5.75C83,736,83,736,83.06,738.19,81.64,740.61,80.64,741,78,742c-2.57.23-5,.37-7.61.41l-2.2.06c-2.31.06-4.63.11-6.94.15l-4.71.12c-3.85.1-7.69.18-11.54.26,1.6,16.37,1.6,16.37,6,32,2.62,1.71,2.62,1.71,6,2q2.31,1,4.56,2.06c9.25,4.16,16.51,3.35,26,.29,5.55-2.18,12.16-5.07,16.44-9.35,1.36-8.64,1.16-17.36,1.17-26.08,0-1.66,0-3.33,0-5,0-3.47,0-6.95,0-10.42q0-6.63,0-13.26,0-5.14,0-10.3c0-1.62,0-3.25,0-4.88.41-13.76.41-13.76-2.24-27.07-2.92-2.67-5.9-4-9.56-5.44l-2.84-1.22A169.32,169.32,0,0,0,65,658l-2.46-.61a70.94,70.94,0,0,0-10.6-.58l-2.15,0c-3.81,0-6.6.08-9.79,2.22-2.55,5.68-2.38,12.69-2.38,18.81v2.72A105.68,105.68,0,0,0,43,712c6.33,2.23,12.34,2.22,19,2a15.81,15.81,0,0,0,2.31-8.66c0-.88,0-1.75.07-2.65,0-1.84.07-3.68.1-5.51,0-.88,0-1.75.08-2.65s0-1.6,0-2.42c.5-2.64,1.23-3.55,3.4-5.11a60,60,0,0,1,7.94.19l2.17.13c3.67.28,6.81.56,9.89,2.68,1.86,3.71,1.18,8.16,1.19,12.25q0,1.41,0,2.85c0,5-.12,9.25-2.22,13.9-4.8,4.8-11.25,4.17-17.62,4.2l-2.5,0-5.22,0c-2.65,0-5.3,0-8,.07l-5.08,0-2.39,0c-6,0-9.21-1.35-13.44-5.58-2.17-3.37-2.86-6.58-3.48-10.48A32.52,32.52,0,0,0,27,698c-.43-5.08-.57-10.15-.68-15.24-.05-1.7-.11-3.39-.2-5.08-.52-9.71-.38-16.79,6.3-24.32C39.81,645.48,46.86,646.83,57,647Z" transform="translate(-25.93 -577)"/><path class="cls-3" d="M645,629h24v71h66V629h24V799H735V725H669c0,5.26,0,10.52,0,15.93,0,3.33,0,6.65,0,10q0,7.92,0,15.84,0,6.38,0,12.76c0,1.62,0,3.25,0,4.88v6.8c0,1.3,0,2.6,0,3.93C669,798,669,798,668,799H645Z" transform="translate(-25.93 -577)"/><path class="cls-3" d="M602,644a79.71,79.71,0,0,1,18,22c.46.82.92,1.65,1.4,2.49C625,675.23,629,683.28,629,691H605c-1.16-2.45-2.31-4.91-3.5-7.44-6.57-13.35-15.48-22-29.75-26.94-14.49-4.36-28.27-3.47-41.76,3.51-13.81,7.53-23.53,21.34-28,36.32-3.95,16.71-2.29,34.32,6,49.55,8.83,13.7,20.89,23.67,37.12,27.31a54.36,54.36,0,0,0,38.24-7.79c11.55-8.44,17.57-18.9,23.64-31.52h22c2.42,9.69-5.09,21.81-10,30-11.28,17.32-27.68,30.17-48.08,34.68-21.43,3.78-40.26.4-58.42-11.29-1.91-1.39-3.71-2.85-5.5-4.39l-1.9-1.47c-17-13.7-26.72-35.17-29.1-56.53-1.42-28,4.31-50.62,22.62-72.36C525.47,622.92,570.43,619.49,602,644Z" transform="translate(-25.93 -577)"/><path class="cls-3" d="M915,629h98v25l-73,1-1,46h72v26H939v46h74v26H915Z" transform="translate(-25.93 -577)"/><path class="cls-3" d="M374.28,628.88h21.56l17.19,0,17.54,0L465,629v25l-73,1-1,46h72v26H391v46h74v26l-37.89,0c-5.86,0-11.73,0-17.59,0h-17l-6.49,0H374.28c-6.17,0-6.17,0-7.28-1.12-.1-2.16-.13-4.33-.13-6.49v-2.08c0-2.32,0-4.63,0-6.95,0-1.65,0-3.31,0-5q0-6.75,0-13.51,0-7.07,0-14.11,0-11.85,0-23.7,0-13.71,0-27.44,0-11.75,0-23.51,0-7,0-14.06,0-6.62,0-13.22V643.1c0-2.2,0-4.4,0-6.61v-3.75C367.11,627.62,369.8,628.88,374.28,628.88Z" transform="translate(-25.93 -577)"/><path class="cls-3" d="M1019,629c27.45-2.08,27.45-2.08,32.65,2.25A49.4,49.4,0,0,1,1057,641q1.82,2.82,3.75,5.56l2,3c2.78,4.23,5.66,8.39,8.53,12.56,6.34,9.24,12.56,18.55,18.75,27.88a54.5,54.5,0,0,0,8.62-10.31l2.09-3.19,1.11-1.72c2.12-3.2,4.31-6.37,6.49-9.53l2.82-4.09,1.43-2.07,4.31-6.28c14.44-21.13,14.44-21.13,17.13-23.81,2.15-.09,4.29-.11,6.44-.1h4l4.16,0h4.18l10.26,0a153.47,153.47,0,0,1-9.75,16l-2.91,4.19-1.61,2.31c-3.32,4.79-6.58,9.62-9.85,14.44l-4.38,6.43c-.73,1.09-1.47,2.17-2.23,3.29l-6.93,10.19-2.3,3.37c-1.44,2.13-2.89,4.25-4.33,6.37q-1.95,2.86-3.89,5.74c-1.2,1.76-2.43,3.51-3.67,5.24l-1.7,2.4-1.51,2.07c-1.13,1.91-1.13,1.91-.73,4,1.36,3.39,3.57,6.25,5.67,9.21l3,4.34c.51.74,1,1.47,1.56,2.23,2.33,3.32,4.62,6.65,6.91,10l2.74,4q4.7,6.84,9.38,13.7,13.18,19.29,26.5,38.5l-1,2c-23.4,2.33-23.4,2.33-30.15-1.09-3.52-3.1-5.45-7.19-7.5-11.35-2.74-5.2-6.23-10-9.54-14.81l-3.92-6c-3.8-5.73-7.81-11.27-11.89-16.8-1.34-1.85-2.68-3.7-4-5.56l-1.75-2.44c-1.25-2-1.25-2-1.25-4-4.08,3.67-6.9,8-9.94,12.56l-3.49,5.16-1.8,2.66c-2.74,4-5.51,8.09-8.27,12.12q-5.09,7.44-10.17,14.88l-1.82,2.66-3.46,5.08c-.52.76-1,1.52-1.57,2.29l-1.38,2A13,13,0,0,1,1048,799c-2.15.09-4.29.11-6.44.1h-4l-4.16,0h-4.18L1019,799a47.65,47.65,0,0,1,5.31-10.12l2.16-3.18c.84-1.24,1.69-2.47,2.53-3.7l3-4.45q9.78-14.32,19.63-28.6l4.08-5.94c.46-.66.91-1.32,1.38-2l2.73-4c2.4-3.51,4.84-7,7.36-10.41l1.57-2.18c1-1.38,2-2.76,3-4.12A23.7,23.7,0,0,0,1075,715c-.73-4-3.2-6.85-5.62-10.06-3.62-4.79-6.94-9.75-10.26-14.75s-6.69-9.93-10.06-14.88l-3.31-4.86-3.42-5L1031.8,650l-3.27-4.8-3.88-5.72c-1-1.47-2-2.94-3-4.39C1019,631.21,1019,631.21,1019,629Z" transform="translate(-25.93 -577)"/><path class="cls-3" d="M33,855H959v8H33Z" transform="translate(-25.93 -577)"/><path class="cls-3" d="M234,629H354v23l-47,1-1,146H282V652H234Z" transform="translate(-25.93 -577)"/><path class="cls-3" d="M94.62,669.81c3.85,2.44,5.68,4.5,7,8.87a105.19,105.19,0,0,1,1.53,18.49c0,1.14,0,1.14,0,2.29q0,3.64,0,7.29v2.51c0,10.16-.11,20.28-.77,30.42-.23,3.56-.37,7.06-.28,10.63,0,.69,0,1.38.05,2.09.06,1.81.15,3.62.24,5.44-.55,4.82-2.8,7.79-6.4,10.95-9,5.87-18,9.07-29,7.21-3.48-2.61-4.83-5.39-6.25-9.44-.5-1.39-.5-1.39-1-2.81A23.55,23.55,0,0,1,59,756a15.67,15.67,0,0,1,9,0c8.12.55,15.3-.9,21.65-6.31,2.7-3.37,2.6-7.48,2.88-11.64.09-1,.17-1.95.26-2.95.17-2.07.33-4.13.48-6.2.23-3.1.5-6.2.78-9.3,2.24-19.88,2.24-19.88-3-38.6-8.65-5.85-21.64-8.38-32-8l1,2c.37,4.61.47,9.25.62,13.88l.16,3.91c0,1.24.09,2.49.13,3.76S61,698.83,61,700a22.31,22.31,0,0,1-1,7l-5.19.12-2.92.08A16.26,16.26,0,0,1,44,705a14.4,14.4,0,0,1-1.75-4.69l-.67-2.51a101,101,0,0,1-1.83-20.3c0-.91,0-1.82-.06-2.76,0-5.68.42-9.79,3.31-14.74C55,650.71,83.57,663.92,94.62,669.81Z" transform="translate(-25.93 -577)"/><path class="cls-4" d="M128.38,612.75c8.25,7.07,12.24,14.73,13.68,25.56.2,4,.19,5.28-1.94,8.75-12.3,7.63-30.5,7.92-44.37,4.93-6.93-1.71-13.44-3.57-19.75-7-.67-11.89,2.47-19.78,10-29C96.76,604.32,115.28,606,128.38,612.75Z" transform="translate(-25.93 -577)"/><path class="cls-3" d="M163.81,664.75A13.17,13.17,0,0,1,172,668c2.14,4.28.92,10.11.76,14.86q-.1,3.2-.18,6.4c0,1.35-.09,2.7-.13,4s-.08,2.47-.11,3.74c-.34,3-.34,3-2.34,5a36.4,36.4,0,0,1-5.62.12l-3,0L159,702c-2.47-3.82-2.44-7.85-2.62-12.25l-.12-2.26c-.1-1.83-.18-3.66-.26-5.49-2.85,0-5.71-.09-8.56-.12l-2.43-.06c-5,0-9.34.17-14,2.18-7.48,15.15-5.19,37.22-3,53.44.08.72.15,1.44.23,2.18.48,2.92,1.13,4.91,3.55,6.69,8,4.14,16.33,5.07,25.22,5.69,1.52,3.93.43,6.72-.81,10.62l-1.09,3.48C154,769,154,769,152,771c-11.05,1.7-21.24-2.36-30.26-8.44A10.87,10.87,0,0,1,118,757c-.12-2.58-.14-5-.06-7.62a91.75,91.75,0,0,0-.42-13,167.43,167.43,0,0,1-.7-18.6c0-2,0-4,0-6,0-27.94,0-27.94,5.22-35.85C132.53,667.29,150.72,665.61,163.81,664.75Z" transform="translate(-25.93 -577)"/><path class="cls-3" d="M168.19,589.44c13.66,2,13.66,2,16.08,5.26a42.34,42.34,0,0,1,1.67,8.8l.4,3.41C186,610,186,610,184.15,612L181,614l-4.8,3.17q-4.12,2.69-8.28,5.35a70.67,70.67,0,0,0-14.2,11.89c-2.39,2.21-4.52,2.59-7.72,2.59-.25-.76-.49-1.53-.75-2.31q-1.62-4.77-3.31-9.5c-.34-1-.69-1.91-1-2.9-.7-2.22-.7-2.22-1.9-3.29-.07-3.67,0-5.88,2.46-8.7,2.12-1.86,4.31-3.58,6.54-5.3l5.62-4.56,2.84-2.28a55.85,55.85,0,0,0,5.79-5.72C165,590,165,590,168.19,589.44Z" transform="translate(-25.93 -577)"/><path class="cls-3" d="M42.3,593.6c5.09.55,6.54,2.7,9.64,6.52q1.56,1.82,3.14,3.61l1.52,1.74A47.17,47.17,0,0,0,66,613l2.49,1.68Q71.73,616.87,75,619a77.66,77.66,0,0,1-2.81,12.25c-.48,1.55-.48,1.55-1,3.14C70,637,70,637,68.28,638.58c-3.61.66-6-1.23-9-3.08l-1.89-1.14c-1.82-1.1-3.62-2.23-5.42-3.36l-2.57-1.56C42.57,625.11,35.53,619.79,31,613a43.53,43.53,0,0,1-.31-6.38c0-1.12,0-2.24-.05-3.39A14.27,14.27,0,0,1,34,595C36.76,594,39.38,594,42.3,593.6Z" transform="translate(-25.93 -577)"/><path class="cls-4" d="M1182,629h25c1.06,18.69-.76,31.62-10,48-1,1-1,1-3.5,1.1l-3.06,0-3.07,0-2.37,0c.61-7.63,2.8-14.7,5-22l-8-1a29.37,29.37,0,0,1-1.13-8.44c0-.83,0-1.66,0-2.52s0-1.72,0-2.6,0-1.73,0-2.62,0-1.66,0-2.51V634C1181,632,1181,632,1182,629Z" transform="translate(-25.93 -577)"/><path class="cls-3" d="M663.56,582.94,667,583l6,18,5-18h7c1.71,1.71,1.13,3.84,1.14,6.12,0,.71,0,1.43,0,2.16,0,1.09,0,1.09,0,2.21,0,1.54,0,3.09,0,4.63,0,2.37,0,4.74,0,7.11,0,1.5,0,3,0,4.49,0,.71,0,1.43,0,2.16,0,5,0,5-1.14,6.12q-3,.06-6,0l-1-7-3,7h-5c-1.48-3.47-1.48-3.47-3-7l-1,7q-3,.06-6,0c-1.71-1.71-1.13-3.84-1.14-6.12,0-.71,0-1.43,0-2.16s0-1.46,0-2.21c0-1.54,0-3.09,0-4.63,0-2.37,0-4.74,0-7.11,0-1.5,0-3,0-4.49,0-.71,0-1.43,0-2.16C658.89,583,658.89,583,663.56,582.94Z" transform="translate(-25.93 -577)"/><path class="cls-3" d="M817,583h7l5,18a58.8,58.8,0,0,0,4.12-11.25c.36-1.26.71-2.53,1.08-3.83.26-1,.53-1.93.8-2.92,2.33,0,4.67,0,7,0,1.71,1.71,1.13,3.84,1.14,6.12,0,.71,0,1.43,0,2.16,0,1.09,0,1.09,0,2.21,0,1.54,0,3.09,0,4.63,0,2.37,0,4.74,0,7.11,0,1.5,0,3,0,4.49,0,.71,0,1.43,0,2.16,0,5,0,5-1.14,6.12q-3,.06-6,0l-1-7-3,7h-5c-1.48-3.47-1.48-3.47-3-7l-1,7q-3,.06-6,0c-1.71-1.71-1.13-3.84-1.14-6.12,0-.71,0-1.43,0-2.16s0-1.46,0-2.21c0-1.54,0-3.09,0-4.63,0-2.37,0-4.74,0-7.11,0-1.5,0-3,0-4.49,0-.71,0-1.43,0-2.16C815.89,584.11,815.89,584.11,817,583Z" transform="translate(-25.93 -577)"/><path class="cls-3" d="M876.56,582.94,880,583l5,13,1-13h6c1.71,1.71,1.13,3.84,1.14,6.12,0,.71,0,1.43,0,2.16,0,1.09,0,1.09,0,2.21,0,1.54,0,3.09,0,4.63,0,2.37,0,4.74,0,7.11,0,1.5,0,3,0,4.49,0,.71,0,1.43,0,2.16,0,5,0,5-1.14,6.12q-3,.06-6,0c-.82-1.6-1.63-3.21-2.44-4.81l-1.37-2.71A31.41,31.41,0,0,1,880,605c-.06.85-.12,1.71-.18,2.59-.09,1.11-.17,2.21-.26,3.35s-.16,2.2-.24,3.34C879,617,879,617,878,618q-3,.06-6,0,0-7.23,0-14.47l0-4.93c0-2.35,0-4.71,0-7.07,0-.73,0-1.47,0-2.23,0-1.77.05-3.53.11-5.3C873,583,873,583,876.56,582.94Z" transform="translate(-25.93 -577)"/><path class="cls-3" d="M349,583h7a13,13,0,0,1,3,5c.28.62.55,1.25.84,1.89.75,1.69,1.46,3.4,2.16,5.11l1-12h6c1,1,1,1,1.11,4.23,0,1.44,0,2.87,0,4.3,0,.76,0,1.51,0,2.29,0,2.41,0,4.83,0,7.24,0,1.64,0,3.27,0,4.9q0,6-.05,12h-7l-6-13-1,13h-7Z" transform="translate(-25.93 -577)"/><path class="cls-3" d="M717,583h7l6,13,1-13h6c1.71,1.71,1.13,3.84,1.14,6.12,0,.71,0,1.43,0,2.16,0,1.09,0,1.09,0,2.21,0,1.54,0,3.09,0,4.63,0,2.37,0,4.74,0,7.11,0,1.5,0,3,0,4.49,0,.71,0,1.43,0,2.16,0,5,0,5-1.14,6.12a15.92,15.92,0,0,1-6,0c-2.83-3.46-4.3-7.88-6-12q-.09,1.17-.18,2.37c-.09,1-.17,2-.26,3.07s-.16,2-.24,3.06C724,617,724,617,723,618h-6Z" transform="translate(-25.93 -577)"/><path class="cls-3" d="M585,583h7l2.44,5.31,1.37,3A43.64,43.64,0,0,1,598,597l1-14h6c1.71,1.71,1.13,3.84,1.14,6.12,0,.71,0,1.43,0,2.16,0,1.09,0,1.09,0,2.21,0,1.54,0,3.09,0,4.63,0,2.37,0,4.74,0,7.11,0,1.5,0,3,0,4.49,0,.71,0,1.43,0,2.16,0,5,0,5-1.14,6.12-2.33,0-4.67,0-7,0l-5-12c-.14,1.79-.29,3.59-.44,5.44-.44,5.44-.44,5.44-1.56,6.56h-6Z" transform="translate(-25.93 -577)"/><path class="cls-3" d="M375,583h7l1.88,3.69,1.05,2.07c1.13,2.37,2.1,4.81,3.07,7.24l1-13h6c1.7,1.71,1.13,3.84,1.14,6.12,0,.71,0,1.43,0,2.16,0,1.09,0,1.09,0,2.21,0,1.54,0,3.09,0,4.63,0,2.37,0,4.74,0,7.11,0,1.5,0,3,0,4.49,0,.71,0,1.43,0,2.16,0,5,0,5-1.14,6.12h-6l-6-12-1,12h-6c-1-1-1-1-1.11-4.23,0-1.44,0-2.87,0-4.3,0-.76,0-1.51,0-2.29,0-2.41,0-4.83,0-7.24,0-1.64,0-3.27,0-4.9Q375,589,375,583Z" transform="translate(-25.93 -577)"/><path class="cls-3" d="M1323,583h7l6,14,1-14h6v35h-7l-6-14-1,14h-6c-1.7-1.71-1.13-3.84-1.14-6.12,0-.71,0-1.43,0-2.16s0-1.46,0-2.21c0-1.54,0-3.09,0-4.63q0-3.55,0-7.11c0-1.5,0-3,0-4.49,0-.71,0-1.43,0-2.16C1321.89,584.11,1321.89,584.11,1323,583Z" transform="translate(-25.93 -577)"/><path class="cls-3" d="M1120,583c13,0,13,0,18,3,2.55,4,2.13,8.2,2,12.79-.13,2.25-.13,2.25,1,4.21.35,5.29.51,8.73-3,13-4,2-4,2-18,2Zm7,7v7l5-1,1-4C1130.18,589.72,1130.18,589.72,1127,590Zm0,14v6c2.89,1.33,2.89,1.33,5.19.06L1134,609c-.5-2.76-.5-2.76-2-5C1130.33,604,1128.67,604,1127,604Z" transform="translate(-25.93 -577)"/><path class="cls-3" d="M84,585c1,2.89,2,5.79,3.06,8.69.3.81.59,1.63.9,2.47C90.64,604,90.64,604,89,608a22.66,22.66,0,0,1-6,5c-4.73-.16-7-2.45-10.31-5.62l-2.9-2.74L67,602c-2.1-1.83-4.22-3.64-6.34-5.43A36,36,0,0,1,56,591c.46-1.92.46-1.92,2-4a61.75,61.75,0,0,1,8.62-1.25l2.38-.23A139,139,0,0,1,84,585Z" transform="translate(-25.93 -577)"/><path class="cls-3" d="M1271,583c13,0,13,0,18,3,2.72,5.32,1.9,10.29.38,15.8-.64,3.71.56,6.62,1.62,10.2a49.27,49.27,0,0,1,0,6h-6l-1.44-4.25c-.26-.79-.53-1.58-.81-2.39a25.12,25.12,0,0,1-1.16-4.59c-.19-.59-.39-1.17-.59-1.77l-3-1v14h-7Zm8,7c-1.36,1.12-1.36,1.12-1.06,4.06,0,1,0,1.94.06,2.94l5-1,1-3a25,25,0,0,0-3-3Z" transform="translate(-25.93 -577)"/><path class="cls-3" d="M560,583q3-.06,6,0c1.81,1.81,1.38,4.61,1.56,7.06.09,1.11.17,2.21.26,3.35.06.86.12,1.71.18,2.59h4c.06-.85.12-1.71.18-2.59.09-1.11.17-2.21.26-3.35s.16-2.2.24-3.34C573,584,573,584,574,583h6v35h-7V604l-5,1-1,13h-6c-1-1-1-1-1.11-4.23,0-1.44,0-2.87,0-4.3,0-.76,0-1.51,0-2.29,0-2.41,0-4.83,0-7.24,0-1.64,0-3.27,0-4.9Q560,589,560,583Z" transform="translate(-25.93 -577)"/><path class="cls-3" d="M1144,583q3-.06,6,0c1.81,1.81,1.38,4.61,1.56,7.06.09,1.11.17,2.21.26,3.35.06.86.12,1.71.18,2.59l5,1c0-.93,0-1.85,0-2.81,0-1.2,0-2.39,0-3.63s0-2.39,0-3.62c.1-2.94.1-2.94,1.1-3.94h6v35h-6c-1-1-1-1-1.1-3.94,0-1.2,0-2.39,0-3.62,0-1.8,0-1.8,0-3.63,0-.93,0-1.85,0-2.81h-6v14h-6c-1-1-1-1-1.11-4.23,0-1.44,0-2.87,0-4.3,0-.76,0-1.51,0-2.29,0-2.41,0-4.83,0-7.24,0-1.64,0-3.27,0-4.9Q1144,589,1144,583Z" transform="translate(-25.93 -577)"/><path class="cls-3" d="M263,583h6c1,1,1,1,1.1,3.94,0,1.2,0,2.39,0,3.62s0,2.4,0,3.63c0,.93,0,1.85,0,2.81l5-1,1-13h6c1.7,1.71,1.13,3.84,1.14,6.12,0,.71,0,1.43,0,2.16,0,1.09,0,1.09,0,2.21,0,1.54,0,3.09,0,4.63,0,2.37,0,4.74,0,7.11,0,1.5,0,3,0,4.49,0,.71,0,1.43,0,2.16,0,5,0,5-1.14,6.12h-6V604h-6c0,.93,0,1.85,0,2.81,0,1.2,0,2.39,0,3.63s0,2.39,0,3.62C270,617,270,617,269,618h-6Z" transform="translate(-25.93 -577)"/><path class="cls-3" d="M626.31,583.75c2.12,1.57,2.7,2.81,3.69,5.25a35.29,35.29,0,0,1,.27,5.28v3.05c0,1,0,2.09,0,3.17s0,2.09,0,3.17v3.05c0,.92,0,1.83,0,2.78A13.26,13.26,0,0,1,628,616c-3.91,2.49-7.49,2-11.91,1.58A8.31,8.31,0,0,1,611,614c-1.47-4.42-1.22-8.74-1.25-13.38,0-.94,0-1.89-.06-2.86C609.64,589,609.64,589,613,585,616.9,582.07,621.8,582.29,626.31,583.75ZM620,590l-3,2a80.07,80.07,0,0,0-.19,8.62c0,.81,0,1.61,0,2.43q.06,3,.15,6c1.66.38,3.33.71,5,1,2.11-2.11,1.23-6.53,1.25-9.44,0-.79,0-1.58.06-2.39A35.12,35.12,0,0,0,623,592Z" transform="translate(-25.93 -577)"/><path class="cls-3" d="M783.31,583.75A9,9,0,0,1,787,589a34.57,34.57,0,0,1,0,5c-6.52.37-6.52.37-8.94-1.5L777,591l-2,1v17h4l1-5h-3v-7h10c.11,2.4.19,4.79.25,7.19l.1,2c.07,3.56-.26,5.61-2.09,8.7-3.07,2.81-5,3-9.07,3.21A10.53,10.53,0,0,1,769,615c-2.81-4.59-2.33-9.21-2.31-14.44,0-.94,0-1.88-.05-2.85,0-5,0-8.66,3.36-12.71C773.9,582.07,778.8,582.29,783.31,583.75Z" transform="translate(-25.93 -577)"/><path class="cls-3" d="M404.06,582.94,407,583a30.82,30.82,0,0,1,1.1,9.42c0,1,0,2.05,0,3.11s0,2.12,0,3.22,0,2.16,0,3.27q0,4-.05,8l4-1c0-.75.05-1.5.08-2.28q.17-5.07.36-10.16c0-1.18.08-2.37.12-3.59s.08-2.25.12-3.4.08-2.09.12-3.16C413,584,413,584,414,583q3-.06,6,0,.15,6.3.22,12.6c0,1.43,0,2.85.08,4.28.05,2.06.07,4.11.09,6.17,0,1.23,0,2.47.06,3.74-.53,3.8-1.47,4.9-4.45,7.21-3.06,1.53-5.62,1.23-9,1a11.85,11.85,0,0,1-5-3,29.12,29.12,0,0,1-2.23-12v-3.34c0-1.71,0-1.71,0-3.45v-3.51C399.86,583,399.86,583,404.06,582.94Z" transform="translate(-25.93 -577)"/><path class="cls-3" d="M511,583h20v7l-12,1-1,6h11q.06,3,0,6c-1,1-1,1-3.28,1.1l-2.78,0-2.79,0L518,604l1,6,2.37,0,3.07,0,3.06,0c2.5.1,2.5.1,3.5,1.1,0,2.33,0,4.67,0,7-3.15,0-6.29,0-9.44.06l-2.72,0h-5C512,618,512,618,511,617c-.09-2.52-.11-5-.1-7.53,0-.76,0-1.51,0-2.29,0-2.41,0-4.83,0-7.24,0-1.64,0-3.27,0-4.9Q511,589,511,583Z" transform="translate(-25.93 -577)"/><path class="cls-3" d="M287,583h20v7l-12,1v5l10,1q.06,3,0,6c-1,1-1,1-3.29,1.1l-2.77,0-2.79,0L294,604l1,6,12,1v6c-1,1-1,1-2.86,1.11h-4.72l-3,0L287,618Z" transform="translate(-25.93 -577)"/><path class="cls-3" d="M749,583h8l3.42,13.51c.38,1.53.77,3.06,1.16,4.59.56,2.2,1.12,4.41,1.67,6.61.17.68.35,1.37.53,2.07A32.24,32.24,0,0,1,765,618h-7l-1-5a27.13,27.13,0,0,0-7,1c-1.51,1.94-1.51,1.94-2,4h-7c1.34-8,3.11-15.83,5.12-23.69L747,591C747.64,588.33,748.32,585.66,749,583Zm4,17-1,5,3-1Z" transform="translate(-25.93 -577)"/><path class="cls-3" d="M1303,583h8l3.42,13.51c.38,1.53.77,3.06,1.16,4.59.56,2.2,1.12,4.41,1.67,6.61.17.68.35,1.37.53,2.07A32.24,32.24,0,0,1,1319,618h-7l-2-4h-6l-2,4h-7c1.34-8,3.11-15.83,5.12-23.69.28-1.09.56-2.19.84-3.32Zm4,17c-1.3,1.07-1.3,1.07-1.06,3.56,0,.81,0,1.61.06,2.44l3-1-1-5Z" transform="translate(-25.93 -577)"/><path class="cls-3" d="M330,583h7a138.35,138.35,0,0,1,6.19,20.88l.82,3.45c2,8.38,2,8.38,2,10.67h-7c-.19-.64-.37-1.28-.56-1.94-1.38-2.48-1.38-2.48-5.06-2.81L330,613l-1,5h-7a115.54,115.54,0,0,1,2.63-13.81c.31-1.24.62-2.48.95-3.76s.65-2.55,1-3.87.67-2.63,1-3.95Q328.78,587.81,330,583Zm3,17-1,5,3,1v-5Z" transform="translate(-25.93 -577)"/><path class="cls-3" d="M1252,583h7c4.78,17,4.78,17,6.81,24.81.24.9.47,1.79.71,2.71A32.32,32.32,0,0,1,1267,618h-6l-2-5a27.13,27.13,0,0,0-7,1c-1.51,1.94-1.51,1.94-2,4h-7l2.88-12.54c.33-1.42.65-2.84,1-4.26l1.41-6.15c.29-1.23.57-2.46.86-3.73A56.38,56.38,0,0,1,1252,583Zm3,16-1,6h3l-1-6Z" transform="translate(-25.93 -577)"/><path class="cls-3" d="M701.56,582.94,705,583c8,28.17,8,28.17,8,35h-6l-2-5a27.13,27.13,0,0,0-7,1c-1.51,1.94-1.51,1.94-2,4h-6a119.34,119.34,0,0,1,4-22.56c.27-1.09.55-2.18.83-3.31C697.15,583,697.15,583,701.56,582.94ZM701,599l-1,6h3l-1-6Z" transform="translate(-25.93 -577)"/><path class="cls-3" d="M432,583h7a190.33,190.33,0,0,1,5.69,19.75c.22.92.45,1.84.68,2.78l.64,2.7c.19.8.38,1.6.58,2.42A36.12,36.12,0,0,1,447,618h-6c-.19-.64-.37-1.28-.56-1.94-1.38-2.48-1.38-2.48-5.06-2.81L432,613l-2,5h-6a128.33,128.33,0,0,1,4-21.44c.27-1.09.55-2.17.83-3.29C430.85,585.3,430.85,585.3,432,583Zm3,16-1,6h3l-1-6Z" transform="translate(-25.93 -577)"/><path class="cls-3" d="M958,583h20v7l-12,1v5l9,1v7H965l1,6,12,1v6c-1,1-1,1-2.86,1.11h-4.72l-3,0L958,618Z" transform="translate(-25.93 -577)"/><path class="cls-3" d="M1387,583c2.94,1.56,2.94,1.56,5,4a30.68,30.68,0,0,1,1,7c-6.52.37-6.52.37-8.94-1.5L1383,591l-2,1a20.54,20.54,0,0,0-1,4l3.75.25c3.09.38,4.13.66,6.69,2.63,2.88,3.91,2.89,7.39,2.56,12.12-1.7,3.82-3.15,5.48-7,7a25.36,25.36,0,0,1-9-1c-2.94-2.58-3.9-3.92-4.25-7.81.08-.72.16-1.45.25-2.19h7l1,2h4l-1-4-3.81-.69c-3-.76-4-1.13-6.19-3.37-1.58-4.65-2-9.54-.08-14.14C1376.71,582.15,1382.06,582.23,1387,583Z" transform="translate(-25.93 -577)"/><path class="cls-3" d="M1355,583h7c2.21,6.33,4.06,12.69,5.69,19.19.33,1.29.33,1.29.68,2.61A41.75,41.75,0,0,1,1370,618h-6c-.19-.64-.37-1.28-.56-1.94-1.38-2.48-1.38-2.48-5.06-2.81L1355,613c-.14.64-.29,1.28-.44,1.94C1354,617,1354,617,1353,618q-3,.06-6,0a148.75,148.75,0,0,1,4-20.88c.27-1.14.55-2.27.83-3.45C1353.86,585.28,1353.86,585.28,1355,583Zm3,17-1,6h3v-5Z" transform="translate(-25.93 -577)"/><path class="cls-3" d="M1169,583h7v27h5l1-27h6c1.71,1.71,1.13,3.84,1.14,6.12,0,1,0,1,0,2.13s0,1.08,0,2.17c-.2,19.53-.2,19.53-4.11,23.58-4.61,1.54-8.44,1.75-12.88-.38C1170,615,1170,615,1169,613c-.09-2.25-.11-4.51-.1-6.76,0-.66,0-1.32,0-2q0-3.18,0-6.35c0-1.44,0-2.88,0-4.31Q1169,588.27,1169,583Z" transform="translate(-25.93 -577)"/><path class="cls-3" d="M998.88,584.38C1001,586,1001,586,1002,588q.06,3,0,6h-7v-3h-5l1,5,3.81.75c2.73.54,3.94,1,5.92,3,2.32,4.15,1.92,8.67,1.27,13.27a13.38,13.38,0,0,1-6,5c-3.66.28-6.36.24-9.81-1.06-3-2.63-3.4-5.13-4.19-8.94,1-1,1-1,4.06-1.06L989,607l1,3,4-1v-4l-3.81-.81a22.58,22.58,0,0,1-6.13-2.31A16,16,0,0,1,982.47,590a14,14,0,0,1,4.28-6.43C991.19,582.45,994.72,582.39,998.88,584.38Z" transform="translate(-25.93 -577)"/><path class="cls-3" d="M792,583h19l1,6c-1,1-1,1-3.72,1.1l-3.34,0-3.35,0L799,590v7h10v7H799l1,6,11,1c1,4,1,4,0,7H792Z" transform="translate(-25.93 -577)"/><path class="cls-3" d="M187,623c-.08,3.27-.19,6.54-.31,9.81,0,.93-.05,1.86-.07,2.82s-.07,1.78-.11,2.7,0,1.65-.08,2.49a8.32,8.32,0,0,1-1.48,3.95c-3,1.92-6.19,1.6-9.68,1.52H173c-2.4,0-4.79,0-7.19-.09l-4.87,0L149,646a10.52,10.52,0,0,1,1-4,30.76,30.76,0,0,1,5.29-3.28l3.29-1.8,3.48-1.86,6.73-3.65,3.24-1.75c3.2-1.79,6.26-3.73,9.28-5.82C183,623,183,623,187,623Z" transform="translate(-25.93 -577)"/><path class="cls-3" d="M848,583h19v7l-12,1v5l10,1q.06,3,0,6c-1,1-1,1-3.07,1.1l-2.49,0-2.51,0L855,604l1,6,11,1v7H848Z" transform="translate(-25.93 -577)"/><path class="cls-3" d="M136.27,583l4,.32,3.95.3c3.31.34,6.54.8,9.8,1.39-.85,7.16-6.25,11-11.62,15.3-10,7.79-10,7.79-14.13,7.51A42.19,42.19,0,0,1,122,605c-.71-5.22,1.7-8.45,4.38-12.69l1.24-2C132.1,583,132.1,583,136.27,583Z" transform="translate(-25.93 -577)"/><path class="cls-3" d="M1221,583h7l5,17c1.28-5.22,1.28-5.22,2.54-10.44,1.35-5.45,1.35-5.45,2.46-6.56,2.33,0,4.67,0,7,0-6.6,32.6-6.6,32.6-9,35-2.33,0-4.67,0-7,0-1.15-4.34-2.28-8.68-3.42-13-.38-1.47-.77-3-1.16-4.42-.56-2.13-1.12-4.25-1.67-6.38-.17-.66-.35-1.31-.53-2A34.14,34.14,0,0,1,1221,583Z" transform="translate(-25.93 -577)"/><path class="cls-3" d="M549,583a10.76,10.76,0,0,1,5,3,35.91,35.91,0,0,1,2,7c-1,1-1,1-4.06,1.06L549,594l-1-3-4,1v17l4,1,1-3h6c1,3,1,3,.38,5.5-1.75,3.16-3.06,4.1-6.38,5.5-4.19.37-7.48.47-11-2-3.17-4.76-2.37-9.84-2.38-15.44,0-1.14,0-2.29-.07-3.47s0-2.2,0-3.34,0-2,0-3c.62-3.41,1.84-4.55,4.49-6.7C543.06,582.47,545.62,582.77,549,583Z" transform="translate(-25.93 -577)"/><path class="cls-3" d="M110.81,583.38l4,.27C118,584,118,584,120,585a48,48,0,0,1-3.5,11.25c-.44,1.06-.89,2.11-1.34,3.2C114,602,114,602,113,603c-2.49.29-4.94.52-7.44.69l-2.1.18c-1.82.13-3.64.14-5.46.13-3-3-2.51-6.52-2.69-10.56,0-.8-.09-1.59-.14-2.41-.1-2-.14-4-.17-6C98.4,581.6,106.45,583.05,110.81,583.38Z" transform="translate(-25.93 -577)"/><path class="cls-3" d="M934,583h19v7H941v7h10q.06,3,0,6c-1,1-1,1-3.07,1.1l-2.49,0-2.51,0L941,604c0,.76,0,1.52,0,2.3,0,1,0,2,0,3s0,2,0,3A13.69,13.69,0,0,1,940,618h-6Z" transform="translate(-25.93 -577)"/><path class="cls-3" d="M1108,577h7c-.19.59-.39,1.19-.59,1.8-4.41,14-6,26-.25,39.92.84,2.28.84,2.28.84,5.28h-7c-6-11.63-7.77-24.49-4.07-37.2A89.12,89.12,0,0,1,1108,577Z" transform="translate(-25.93 -577)"/><path class="cls-3" d="M30,625c4.37.47,6.63,1.09,9.69,4.25,4.56,4.27,9.58,6.4,15.31,8.75,4.34,1.91,6.1,2.71,8,7q-6.36.11-12.71.16l-4.32.07-6.21.06-3.78.05L33,645c-2-3-2.26-3.68-2.41-7l-.12-2.3c0-1.17,0-1.17-.09-2.38s-.06-1.19-.12-2.41C30.16,628.93,30.08,627,30,625Z" transform="translate(-25.93 -577)"/><path class="cls-3" d="M451,583h6c1.77,1.78,1.23,4.38,1.32,6.78,0,1.18.08,2.34.12,3.55s.08,2.46.12,3.73.09,2.47.13,3.75q.17,4.59.31,9.19l2.12,0,2.76,0,2.74,0A7.22,7.22,0,0,1,471,611q.06,3,0,6c-1,1-1,1-2.86,1.11h-4.72l-3,0L451,618Z" transform="translate(-25.93 -577)"/><path class="cls-3" d="M1193,577h7c7,12.74,7.6,25.29,4,39.34a27.44,27.44,0,0,1-4,7.66,26.42,26.42,0,0,1-7,0c.19-.56.39-1.11.59-1.69,5.11-15,5.72-26.16.41-41.31C1193.65,579.67,1193.31,578.34,1193,577Z" transform="translate(-25.93 -577)"/><path class="cls-3" d="M1075,583h20v7h-6c0,.81,0,1.62,0,2.46q0,5.49,0,11c0,1.28,0,2.56,0,3.87s0,2.43,0,3.69,0,2.25,0,3.41C1089,617,1089,617,1088,618h-6l-1-27-6-1Z" transform="translate(-25.93 -577)"/><path class="cls-3" d="M487,583h20v7l-6,1-1,27h-6c-1-1-1-1-1.11-3.59,0-1.13,0-2.25,0-3.41s0-2.43,0-3.69,0-2.55,0-3.87,0-2.57,0-3.89c0-3.18,0-6.37.05-9.55h-6Z" transform="translate(-25.93 -577)"/><path class="cls-3" d="M243,582.87h2.44l2.56,0,2.56,0h4.69C257,583,257,583,258,584q.06,3,0,6l-5,1-1,27h-7l-1-27-6-1q-.06-3,0-6C239.52,582.48,240.88,582.87,243,582.87Z" transform="translate(-25.93 -577)"/><path class="cls-3" d="M1005,583h19v7l-5,1c0,.78,0,1.57-.08,2.37q-.17,5.28-.36,10.57c0,1.23-.08,2.46-.12,3.73s-.08,2.34-.12,3.55c-.06,1.62-.06,1.62-.11,3.28-.21,2.5-.21,2.5-1.21,3.5h-6l-1-27-5-1Z" transform="translate(-25.93 -577)"/><path class="cls-3" d="M898,583h19v7h-6c0,.81,0,1.62,0,2.46q0,5.49,0,11c0,1.28,0,2.56,0,3.87s0,2.43,0,3.69,0,2.25,0,3.41C911,617,911,617,910,618h-6l-1-27-5-1Z" transform="translate(-25.93 -577)"/><path class="cls-3" d="M1397,583h7v35h-6c-1-1-1-1-1.11-4.23,0-1.44,0-2.87,0-4.3,0-.76,0-1.51,0-2.29,0-2.41,0-4.83,0-7.24,0-1.64,0-3.27,0-4.9Q1397,589,1397,583Z" transform="translate(-25.93 -577)"/><path class="cls-3" d="M1055.5,582.88c2.5.12,2.5.12,3.5,1.12.09,2.52.12,5,.1,7.53,0,.76,0,1.51,0,2.29,0,2.41,0,4.83,0,7.24,0,1.64,0,3.27,0,4.9q0,6,0,12-3,.06-6,0c-1.7-1.71-1.13-3.84-1.14-6.12,0-.71,0-1.43,0-2.16s0-1.46,0-2.21c0-1.54,0-3.09,0-4.63q0-3.55,0-7.11c0-1.5,0-3,0-4.49,0-.71,0-1.43,0-2.16C1051.89,583.05,1051.89,583.05,1055.5,582.88Z" transform="translate(-25.93 -577)"/><path class="cls-3" d="M1064,583h6v35h-6Z" transform="translate(-25.93 -577)"/><path class="cls-3" d="M635,597h20v7H635Z" transform="translate(-25.93 -577)"/><path class="cls-3" d="M1036,611l-1,12h-5c-1-1-1-1-1.1-3.5,0-1,0-2,0-3.06s0-2,0-3.07c0-.78,0-1.56,0-2.37C1032,610,1032,610,1036,611Z" transform="translate(-25.93 -577)"/><path class="cls-4" d="M1334.73,803.3H1217V780.72L1261.2,736q13.11-13.37,21.37-22.83,8.51-9.72,12.38-18a39.68,39.68,0,0,0,4.13-18q0-11.89-6.79-17.73-6.81-6.07-18-6.07a46,46,0,0,0-20.4,4.61,94.49,94.49,0,0,0-18.89,12,1,1,0,0,1-1.43-.14l-16.11-19.38A120.35,120.35,0,0,1,1233,639.14a73.56,73.56,0,0,1,18.7-8.5,84.28,84.28,0,0,1,24.28-3.15q16.76,0,28.65,6.07a43.82,43.82,0,0,1,18.71,16.27q6.56,10.44,6.55,24.28a61.24,61.24,0,0,1-3.15,19.91,74.49,74.49,0,0,1-9.23,17.73,140.92,140.92,0,0,1-14.82,17.73q-8.74,9-19.66,19.43l-27.14,26.16a1,1,0,0,0-.31.74h0a1,1,0,0,0,1,1h78.1a1,1,0,0,1,1,1v24.43A1,1,0,0,1,1334.73,803.3ZM1479,766.15h-20.55a1,1,0,0,0-1,1v35.11a1,1,0,0,1-1,1h-28.07a1,1,0,0,1-1-1V767.17a1,1,0,0,0-1-1h-75.18a1,1,0,0,1-1-1V743.64a1,1,0,0,1,.18-.58l77.47-113.19a1,1,0,0,1,.84-.44h27.82a1,1,0,0,1,1,1V740.11a1,1,0,0,0,1,1H1479a1,1,0,0,1,1,1v23A1,1,0,0,1,1479,766.15Zm-51.68-63.87V691.84c.16-3.72.32-7.37.48-10.93s.33-6.8.49-9.71.32-5.18.49-6.8h-1q-2.17,4.61-4.85,9.71a66.79,66.79,0,0,1-5.58,9.23l-38.25,56.2a1,1,0,0,0,.84,1.59h46.34a1,1,0,0,0,1-1Z" transform="translate(-25.93 -577)"/></g><path class="cls-4" d="M990.82,866h8.57V845.3h-7.56v-6.68a28.39,28.39,0,0,0,10.46-3.91h7.94V866h7.18v8.7H990.82Z" transform="translate(-25.93 -577)"/><path class="cls-4" d="M1022.07,869.74l4.79-6.8c2.39,2.14,5.16,3.78,8.06,3.78,3.78,0,5.92-1.64,5.92-5.17s-2.27-5.16-5.41-5.16c-2.15,0-3.15.38-5.55,1.89l-4.66-3,1-20.54h23.69v9.08h-14.37l-.5,5.79a10.18,10.18,0,0,1,3.78-.63c6.93,0,12.85,3.91,12.85,12.35,0,9-7,14.11-15.12,14.11A19.65,19.65,0,0,1,1022.07,869.74Z" transform="translate(-25.93 -577)"/><path class="cls-4" d="M1070.07,854.87H1086v7.57h-15.88Z" transform="translate(-25.93 -577)"/><path class="cls-4" d="M1104.22,866h8.57V845.3h-7.56v-6.68a28.39,28.39,0,0,0,10.46-3.91h7.93V866h7.19v8.7h-26.59Z" transform="translate(-25.93 -577)"/><path class="cls-4" d="M1154,843.79h-17.14v-9.08h28.61v6.68c-9.2,10.78-10.21,17.71-11,33.27h-10.83C1144.41,862.06,1146.56,854.06,1154,843.79Z" transform="translate(-25.93 -577)"/><path class="cls-4" d="M1185.24,833.71h11.59l6.17,16.75c.76,2.27,1.39,4.79,2.15,7.19h.25c.75-2.4,1.38-4.92,2.14-7.19l5.92-16.75h11.59v40.95h-9.82v-12.1a142.88,142.88,0,0,1,1.38-14.62h-.25l-3.4,9.83-5,13.55h-5.8l-5-13.55-3.28-9.83h-.25a140.13,140.13,0,0,1,1.39,14.62v12.1h-9.7Z" transform="translate(-25.93 -577)"/><path class="cls-4" d="M1241.43,833.71h13.11L1267,874.66h-11.47l-4.66-19.91c-1-3.91-2-8.88-3-13h-.25c-.89,4.16-1.89,9.07-2.9,13l-4.66,19.91H1229Zm-3.53,23.87h20V866h-20Z" transform="translate(-25.93 -577)"/><path class="cls-4" d="M1270.29,833.71h15.49c8.83,0,16.39,3,16.39,13.23,0,9.89-7.56,14-16.39,14h-4.66v13.74h-10.83ZM1285,852.35c4.28,0,6.55-1.89,6.55-5.41s-2.27-4.67-6.55-4.67h-3.91v10.08Zm-1.2,5.74,7.31-7.18,13.29,23.75h-12.09Z" transform="translate(-25.93 -577)"/><path class="cls-4" d="M1320.31,868.48c9.45-8.69,16.76-15.37,16.76-20.79,0-3.59-2-5.29-4.92-5.29-2.64,0-4.66,1.89-6.55,3.78l-5.8-5.8c4.16-4.41,7.94-6.42,13.86-6.42,8.07,0,13.74,5.16,13.74,13.1,0,6.43-6.05,13.49-11.47,19a65,65,0,0,1,6.68-.5h6.68v9.07h-29Z" transform="translate(-25.93 -577)"/><path class="cls-4" d="M1354.2,854.5c0-13.67,6-20.54,14.87-20.54s14.87,6.93,14.87,20.54-6,20.91-14.87,20.91S1354.2,868.17,1354.2,854.5Zm19.53,0c0-10.59-2.14-12.23-4.66-12.23s-4.66,1.64-4.66,12.23,2.14,12.6,4.66,12.6S1373.73,865.08,1373.73,854.5Z" transform="translate(-25.93 -577)"/><path class="cls-4" d="M1388.35,868.48c9.45-8.69,16.76-15.37,16.76-20.79,0-3.59-2-5.29-4.92-5.29-2.65,0-4.66,1.89-6.55,3.78l-5.8-5.8c4.16-4.41,7.94-6.42,13.86-6.42,8.07,0,13.74,5.16,13.74,13.1,0,6.43-6,13.49-11.47,19a65,65,0,0,1,6.68-.5h6.68v9.07h-29Z" transform="translate(-25.93 -577)"/><path class="cls-4" d="M1438.37,853c0-2.7.25-6.74.38-9.45h-.26c-1,2.4-2.14,4.79-3.27,7.19l-3.66,6.8h21.17v8.19h-31.37v-7.56L1435,834.71h13.48v39.95h-10.08Z" transform="translate(-25.93 -577)"/></g></g></svg>