<?xml version="1.0" encoding="UTF-8"?>
<svg xmlns="http://www.w3.org/2000/svg" xmlns:xlink="http://www.w3.org/1999/xlink" width="70px" height="44px" viewBox="0 0 70 44" version="1.1">
<g id="surface1">
<path style=" stroke:none;fill-rule:nonzero;fill:rgb(3.921569%,35.686275%,60.784314%);fill-opacity:1;" d="M 6.640625 24.292969 L 6.640625 21.929688 L 9.425781 21.929688 L 9.425781 20.59375 L 6.640625 20.59375 L 6.640625 18.53125 L 9.59375 18.53125 L 9.59375 17.164062 L 5 17.164062 L 5 25.671875 L 9.761719 25.671875 L 9.761719 24.304688 L 6.640625 24.304688 Z M 11.28125 20.964844 C 11.683594 20.71875 12.234375 20.539062 12.796875 20.539062 C 13.695312 20.539062 13.910156 20.996094 13.910156 21.613281 C 11.941406 21.613281 10.539062 22.355469 10.539062 23.933594 C 10.539062 24.933594 11.246094 25.785156 12.390625 25.785156 C 13.078125 25.785156 13.683594 25.503906 14.03125 25.023438 L 14.066406 25.023438 L 14.167969 25.660156 L 15.636719 25.660156 C 15.570312 25.28125 15.546875 24.742188 15.546875 24.203125 L 15.546875 21.953125 C 15.546875 20.605469 15.03125 19.382812 13.109375 19.382812 C 12.144531 19.382812 11.378906 19.664062 10.964844 19.898438 Z M 13.953125 23.554688 C 13.953125 24.339844 13.3125 24.621094 12.917969 24.621094 C 12.503906 24.621094 12.144531 24.363281 12.144531 23.777344 C 12.144531 22.882812 13.066406 22.667969 13.953125 22.667969 Z M 16.636719 25.371094 C 17.054688 25.617188 17.703125 25.785156 18.378906 25.785156 C 19.917969 25.785156 20.804688 25.011719 20.804688 23.835938 C 20.804688 22.980469 20.320312 22.386719 19.277344 21.949219 C 18.570312 21.648438 18.332031 21.480469 18.332031 21.132812 C 18.332031 20.796875 18.601562 20.546875 19.097656 20.546875 C 19.558594 20.546875 19.996094 20.726562 20.265625 20.875 L 20.578125 19.71875 C 20.21875 19.527344 19.679688 19.371094 19.050781 19.371094 C 17.683594 19.371094 16.792969 20.214844 16.792969 21.324219 C 16.792969 21.996094 17.222656 22.644531 18.367188 23.117188 C 19.039062 23.40625 19.253906 23.597656 19.253906 23.980469 C 19.253906 24.359375 18.972656 24.597656 18.398438 24.597656 C 17.894531 24.597656 17.277344 24.371094 16.960938 24.179688 Z M 26.847656 23.074219 C 26.878906 22.894531 26.890625 22.65625 26.890625 22.421875 C 26.890625 20.425781 25.914062 19.371094 24.421875 19.371094 C 22.613281 19.371094 21.589844 20.898438 21.589844 22.667969 C 21.589844 24.585938 22.679688 25.785156 24.589844 25.785156 C 25.351562 25.785156 26.074219 25.652344 26.589844 25.425781 L 26.351562 24.296875 C 25.925781 24.441406 25.453125 24.554688 24.847656 24.554688 C 23.960938 24.554688 23.207031 24.125 23.164062 23.085938 L 26.847656 23.085938 Z M 23.164062 21.941406 C 23.207031 21.335938 23.542969 20.515625 24.332031 20.515625 C 25.140625 20.515625 25.398438 21.300781 25.386719 21.941406 Z M 33.867188 17.152344 L 32.898438 20.347656 C 32.609375 21.367188 32.359375 22.398438 32.160156 23.351562 L 32.125 23.351562 C 31.933594 22.378906 31.6875 21.378906 31.417969 20.347656 L 30.496094 17.152344 L 28.464844 17.152344 L 27.890625 25.660156 L 29.386719 25.660156 L 29.554688 22.386719 C 29.609375 21.335938 29.667969 20.078125 29.6875 19.003906 L 29.722656 19.003906 C 29.925781 20.042969 30.195312 21.199219 30.464844 22.152344 L 31.40625 25.539062 L 32.652344 25.539062 L 33.699219 22.097656 C 33.992188 21.144531 34.292969 20.011719 34.542969 19.003906 L 34.574219 19.003906 C 34.5625 19.863281 34.621094 21.234375 34.664062 22.355469 L 34.820312 25.660156 L 36.382812 25.660156 L 35.898438 17.152344 Z M 40.359375 22.726562 C 40.265625 23.105469 40.167969 23.542969 40.101562 23.878906 L 40.066406 23.878906 C 39.988281 23.53125 39.875 23.105469 39.773438 22.726562 L 38.863281 19.507812 L 37.066406 19.507812 L 39.144531 25.167969 C 39.191406 25.292969 39.210938 25.382812 39.210938 25.449219 C 39.210938 25.574219 38.933594 26.199219 38.394531 26.59375 C 38.101562 26.792969 37.796875 26.972656 37.527344 27.039062 L 37.945312 28.417969 C 38.3125 28.351562 38.941406 28.128906 39.539062 27.554688 C 40.234375 26.863281 40.761719 25.773438 41.449219 23.777344 L 42.839844 19.496094 L 41.132812 19.496094 Z M 43.03125 17.152344 L 43.03125 18.566406 L 45.132812 18.566406 L 45.132812 25.664062 L 46.769531 25.664062 L 46.769531 18.566406 L 48.882812 18.566406 L 48.882812 17.152344 Z M 51.171875 20.570312 L 51.105469 19.496094 L 49.703125 19.496094 C 49.722656 20.042969 49.746094 20.660156 49.746094 21.425781 L 49.746094 25.660156 L 51.386719 25.660156 L 51.386719 22.476562 C 51.386719 21.425781 51.949219 20.929688 52.6875 20.929688 C 52.855469 20.929688 52.992188 20.941406 53.113281 20.964844 L 53.113281 19.40625 C 53.003906 19.382812 52.902344 19.371094 52.746094 19.371094 C 52.171875 19.371094 51.5 19.789062 51.21875 20.582031 L 51.171875 20.582031 Z M 55.722656 17.8125 C 55.722656 17.308594 55.363281 16.9375 54.835938 16.9375 C 54.328125 16.9375 53.957031 17.308594 53.957031 17.8125 C 53.957031 18.308594 54.316406 18.6875 54.835938 18.6875 C 55.351562 18.699219 55.722656 18.351562 55.722656 17.8125 Z M 54.027344 25.660156 L 55.664062 25.660156 L 55.664062 19.496094 L 54.027344 19.496094 Z M 58.53125 19.507812 L 57.105469 19.507812 C 57.125 20.066406 57.148438 20.730469 57.148438 21.523438 L 57.148438 28.140625 L 58.789062 28.140625 L 58.789062 25.066406 L 58.8125 25.066406 C 59.082031 25.484375 59.597656 25.785156 60.269531 25.785156 C 61.527344 25.785156 62.808594 24.789062 62.808594 22.523438 C 62.808594 20.628906 61.808594 19.371094 60.460938 19.371094 C 59.664062 19.371094 59.035156 19.71875 58.632812 20.347656 L 58.609375 20.347656 Z M 58.789062 22.03125 C 58.789062 21.289062 59.28125 20.695312 59.921875 20.695312 C 60.730469 20.695312 61.15625 21.492188 61.15625 22.589844 C 61.15625 23.699219 60.722656 24.519531 59.890625 24.519531 C 59.339844 24.519531 58.789062 24.082031 58.789062 23.195312 Z M 58.789062 22.03125 "/>
<path style=" stroke:none;fill-rule:evenodd;fill:rgb(3.921569%,35.686275%,60.784314%);fill-opacity:1;" d="M 15.601562 20.304688 C 20.117188 11.199219 32.449219 18.160156 39.289062 12.085938 C 32.472656 19.191406 18.984375 13.195312 15.601562 20.304688 Z M 15.601562 20.304688 "/>
<path style=" stroke:none;fill-rule:evenodd;fill:rgb(3.921569%,35.686275%,60.784314%);fill-opacity:1;" d="M 36.113281 12.246094 L 36.929688 13.117188 C 37.328125 13.546875 37.21875 13.558594 36.765625 13.832031 L 34.171875 15.042969 C 33.863281 15.230469 33.664062 15.074219 33.886719 14.722656 L 35.527344 12.09375 C 35.683594 11.761719 35.859375 11.9375 36.113281 12.246094 Z M 36.113281 12.246094 "/>
<path style=" stroke:none;fill-rule:nonzero;fill:rgb(14.117647%,13.333333%,12.54902%);fill-opacity:1;" d="M 59.546875 28.140625 C 59.597656 28.140625 59.632812 28.121094 59.648438 28.089844 C 59.667969 28.054688 59.671875 28.011719 59.671875 27.96875 C 59.671875 27.929688 59.65625 27.898438 59.625 27.875 C 59.597656 27.851562 59.5625 27.835938 59.527344 27.835938 C 59.480469 27.835938 59.453125 27.855469 59.4375 27.894531 C 59.417969 27.933594 59.414062 27.96875 59.414062 28.007812 C 59.414062 28.046875 59.425781 28.078125 59.453125 28.105469 C 59.472656 28.128906 59.507812 28.140625 59.546875 28.140625 Z M 60.277344 28.152344 C 60.375 28.152344 60.46875 28.132812 60.558594 28.097656 C 60.652344 28.066406 60.738281 28.023438 60.8125 27.96875 C 60.890625 27.910156 60.960938 27.847656 61.023438 27.773438 C 61.085938 27.699219 61.144531 27.625 61.1875 27.542969 C 61.191406 27.53125 61.199219 27.519531 61.203125 27.503906 C 61.207031 27.484375 61.214844 27.476562 61.214844 27.464844 C 61.214844 27.429688 61.195312 27.410156 61.164062 27.410156 C 61.140625 27.410156 61.121094 27.421875 61.105469 27.441406 C 61.085938 27.464844 61.078125 27.480469 61.066406 27.496094 C 61.03125 27.554688 60.992188 27.613281 60.945312 27.667969 C 60.898438 27.726562 60.839844 27.773438 60.789062 27.820312 C 60.730469 27.863281 60.667969 27.898438 60.605469 27.929688 C 60.542969 27.957031 60.46875 27.96875 60.398438 27.96875 C 60.332031 27.96875 60.273438 27.945312 60.226562 27.898438 C 60.195312 27.863281 60.171875 27.824219 60.160156 27.777344 C 60.140625 27.730469 60.136719 27.679688 60.136719 27.625 C 60.136719 27.566406 60.140625 27.503906 60.152344 27.441406 C 60.164062 27.378906 60.179688 27.3125 60.203125 27.257812 C 60.226562 27.199219 60.25 27.140625 60.277344 27.097656 C 60.308594 27.050781 60.335938 27.011719 60.359375 26.980469 C 60.382812 26.957031 60.410156 26.9375 60.433594 26.925781 C 60.460938 26.90625 60.492188 26.902344 60.519531 26.902344 C 60.558594 26.902344 60.582031 26.914062 60.589844 26.941406 C 60.59375 26.96875 60.601562 27 60.601562 27.027344 C 60.601562 27.078125 60.589844 27.125 60.574219 27.160156 C 60.550781 27.191406 60.542969 27.226562 60.542969 27.25 C 60.542969 27.273438 60.554688 27.285156 60.578125 27.285156 C 60.609375 27.285156 60.636719 27.273438 60.664062 27.25 C 60.691406 27.222656 60.714844 27.179688 60.726562 27.128906 C 60.738281 27.078125 60.746094 27.039062 60.746094 26.996094 C 60.746094 26.90625 60.722656 26.84375 60.667969 26.804688 C 60.625 26.761719 60.554688 26.746094 60.476562 26.746094 C 60.40625 26.746094 60.335938 26.761719 60.28125 26.785156 C 60.222656 26.8125 60.164062 26.855469 60.121094 26.902344 C 60.078125 26.941406 60.042969 26.980469 60.015625 27.03125 C 59.980469 27.082031 59.957031 27.140625 59.933594 27.199219 C 59.914062 27.253906 59.894531 27.320312 59.878906 27.382812 C 59.867188 27.445312 59.859375 27.507812 59.859375 27.574219 C 59.859375 27.660156 59.871094 27.75 59.902344 27.828125 C 59.925781 27.90625 59.96875 27.976562 60.027344 28.035156 C 60.054688 28.0625 60.097656 28.09375 60.136719 28.109375 C 60.167969 28.140625 60.222656 28.152344 60.277344 28.152344 Z M 61.085938 27.699219 C 61.085938 27.847656 61.121094 27.960938 61.179688 28.03125 C 61.242188 28.097656 61.316406 28.140625 61.402344 28.140625 C 61.472656 28.140625 61.542969 28.121094 61.617188 28.082031 C 61.691406 28.042969 61.753906 27.984375 61.816406 27.910156 C 61.875 27.835938 61.925781 27.742188 61.964844 27.632812 C 62.003906 27.523438 62.023438 27.398438 62.023438 27.253906 C 62.023438 27.199219 62.015625 27.140625 62 27.082031 C 61.988281 27.03125 61.964844 26.984375 61.941406 26.945312 C 61.921875 26.90625 61.886719 26.878906 61.84375 26.855469 C 61.804688 26.832031 61.757812 26.820312 61.707031 26.820312 C 61.613281 26.820312 61.535156 26.847656 61.453125 26.902344 C 61.378906 26.957031 61.3125 27.027344 61.257812 27.113281 C 61.207031 27.199219 61.160156 27.296875 61.132812 27.394531 C 61.105469 27.503906 61.085938 27.601562 61.085938 27.699219 Z M 61.707031 27.039062 C 61.765625 27.039062 61.808594 27.066406 61.832031 27.121094 C 61.863281 27.175781 61.875 27.238281 61.878906 27.320312 C 61.878906 27.421875 61.867188 27.515625 61.84375 27.59375 C 61.820312 27.675781 61.789062 27.742188 61.753906 27.800781 C 61.710938 27.859375 61.671875 27.898438 61.625 27.933594 C 61.582031 27.960938 61.539062 27.980469 61.492188 27.980469 C 61.449219 27.980469 61.40625 27.957031 61.375 27.910156 C 61.339844 27.863281 61.328125 27.792969 61.328125 27.699219 C 61.328125 27.628906 61.339844 27.554688 61.355469 27.480469 C 61.378906 27.40625 61.40625 27.332031 61.4375 27.265625 C 61.46875 27.203125 61.511719 27.148438 61.554688 27.105469 C 61.605469 27.0625 61.65625 27.039062 61.707031 27.039062 Z M 63.234375 28.058594 C 63.257812 28.058594 63.269531 28.054688 63.285156 28.042969 C 63.300781 28.03125 63.3125 28.019531 63.324219 27.996094 C 63.34375 27.96875 63.367188 27.925781 63.394531 27.863281 C 63.429688 27.808594 63.464844 27.738281 63.507812 27.664062 C 63.554688 27.589844 63.601562 27.515625 63.648438 27.441406 C 63.691406 27.367188 63.746094 27.292969 63.789062 27.226562 C 63.835938 27.164062 63.878906 27.113281 63.917969 27.074219 C 63.957031 27.035156 63.984375 27.011719 64.015625 27.011719 C 64.03125 27.011719 64.042969 27.015625 64.050781 27.027344 C 64.054688 27.039062 64.0625 27.054688 64.066406 27.074219 C 64.074219 27.089844 64.074219 27.109375 64.074219 27.125 L 64.074219 27.164062 C 64.074219 27.261719 64.066406 27.359375 64.054688 27.457031 C 64.042969 27.554688 64.039062 27.652344 64.039062 27.75 C 64.039062 27.789062 64.039062 27.835938 64.042969 27.886719 C 64.050781 27.9375 64.054688 27.984375 64.074219 28.03125 C 64.089844 28.074219 64.113281 28.113281 64.140625 28.144531 C 64.167969 28.171875 64.214844 28.191406 64.269531 28.191406 C 64.324219 28.191406 64.386719 28.171875 64.457031 28.132812 C 64.527344 28.09375 64.589844 28.046875 64.652344 27.996094 C 64.714844 27.945312 64.78125 27.886719 64.832031 27.824219 C 64.886719 27.765625 64.929688 27.707031 64.964844 27.667969 C 64.96875 27.65625 64.976562 27.652344 64.984375 27.632812 C 64.992188 27.621094 64.996094 27.609375 64.996094 27.601562 C 64.996094 27.582031 64.992188 27.566406 64.984375 27.554688 C 64.980469 27.535156 64.96875 27.53125 64.945312 27.53125 C 64.921875 27.53125 64.90625 27.542969 64.886719 27.558594 C 64.871094 27.582031 64.855469 27.601562 64.84375 27.617188 C 64.820312 27.644531 64.789062 27.679688 64.75 27.726562 C 64.710938 27.773438 64.664062 27.8125 64.617188 27.859375 C 64.574219 27.898438 64.519531 27.9375 64.476562 27.96875 C 64.429688 27.996094 64.382812 28.011719 64.347656 28.011719 C 64.324219 28.011719 64.308594 28.007812 64.292969 27.988281 C 64.28125 27.972656 64.269531 27.957031 64.261719 27.9375 C 64.257812 27.914062 64.257812 27.898438 64.257812 27.875 L 64.257812 27.816406 C 64.257812 27.691406 64.261719 27.566406 64.28125 27.445312 C 64.296875 27.324219 64.304688 27.199219 64.304688 27.070312 C 64.304688 27.042969 64.296875 27.007812 64.292969 26.980469 C 64.285156 26.945312 64.273438 26.917969 64.257812 26.894531 C 64.238281 26.867188 64.214844 26.84375 64.191406 26.824219 C 64.164062 26.808594 64.136719 26.796875 64.101562 26.796875 C 64.050781 26.796875 64.003906 26.816406 63.953125 26.847656 C 63.902344 26.882812 63.867188 26.917969 63.832031 26.953125 C 63.792969 26.996094 63.75 27.042969 63.71875 27.09375 C 63.683594 27.148438 63.648438 27.199219 63.613281 27.242188 C 63.566406 27.308594 63.523438 27.371094 63.476562 27.433594 C 63.429688 27.496094 63.390625 27.558594 63.351562 27.628906 C 63.34375 27.632812 63.339844 27.644531 63.328125 27.660156 C 63.316406 27.679688 63.308594 27.691406 63.304688 27.691406 C 63.296875 27.691406 63.292969 27.679688 63.289062 27.660156 C 63.28125 27.644531 63.28125 27.621094 63.28125 27.59375 C 63.28125 27.570312 63.277344 27.542969 63.277344 27.519531 L 63.277344 27.460938 C 63.277344 27.398438 63.277344 27.335938 63.28125 27.265625 C 63.28125 27.203125 63.289062 27.140625 63.289062 27.078125 C 63.289062 27.054688 63.289062 27.027344 63.28125 26.996094 C 63.277344 26.96875 63.269531 26.933594 63.265625 26.90625 C 63.253906 26.878906 63.242188 26.855469 63.222656 26.832031 C 63.207031 26.8125 63.183594 26.804688 63.148438 26.804688 C 63.101562 26.804688 63.058594 26.828125 63.007812 26.871094 C 62.953125 26.917969 62.902344 26.976562 62.851562 27.03125 C 62.800781 27.097656 62.753906 27.160156 62.710938 27.222656 C 62.671875 27.285156 62.636719 27.335938 62.617188 27.371094 C 62.625 27.308594 62.636719 27.242188 62.65625 27.179688 C 62.671875 27.117188 62.691406 27.054688 62.710938 27 C 62.722656 26.976562 62.730469 26.953125 62.746094 26.917969 C 62.757812 26.890625 62.777344 26.855469 62.789062 26.828125 C 62.800781 26.792969 62.8125 26.765625 62.820312 26.734375 C 62.832031 26.707031 62.832031 26.679688 62.832031 26.65625 C 62.832031 26.632812 62.828125 26.609375 62.816406 26.597656 C 62.804688 26.582031 62.789062 26.574219 62.765625 26.574219 C 62.71875 26.574219 62.671875 26.585938 62.621094 26.609375 C 62.570312 26.632812 62.53125 26.667969 62.507812 26.707031 C 62.496094 26.734375 62.480469 26.78125 62.460938 26.84375 C 62.445312 26.914062 62.421875 26.988281 62.402344 27.074219 C 62.386719 27.160156 62.363281 27.25 62.347656 27.347656 C 62.324219 27.445312 62.304688 27.535156 62.292969 27.625 C 62.277344 27.710938 62.265625 27.789062 62.253906 27.863281 C 62.242188 27.9375 62.238281 27.988281 62.238281 28.023438 C 62.238281 28.042969 62.242188 28.058594 62.253906 28.074219 C 62.265625 28.09375 62.28125 28.097656 62.304688 28.097656 C 62.335938 28.097656 62.363281 28.085938 62.378906 28.066406 C 62.398438 28.042969 62.414062 28.019531 62.425781 27.996094 C 62.4375 27.96875 62.460938 27.925781 62.488281 27.871094 C 62.519531 27.8125 62.558594 27.742188 62.597656 27.675781 C 62.636719 27.601562 62.683594 27.527344 62.738281 27.453125 C 62.789062 27.378906 62.832031 27.304688 62.878906 27.238281 C 62.925781 27.175781 62.964844 27.125 63.007812 27.085938 C 63.046875 27.046875 63.074219 27.023438 63.097656 27.023438 C 63.113281 27.023438 63.125 27.035156 63.125 27.050781 C 63.125 27.066406 63.132812 27.085938 63.132812 27.089844 L 63.132812 27.335938 C 63.132812 27.394531 63.132812 27.449219 63.136719 27.511719 C 63.136719 27.578125 63.144531 27.640625 63.148438 27.703125 C 63.15625 27.765625 63.160156 27.824219 63.167969 27.875 C 63.171875 27.925781 63.183594 27.972656 63.199219 28.007812 C 63.195312 28.042969 63.210938 28.058594 63.234375 28.058594 Z M 63.234375 28.058594 "/>
<path style=" stroke:none;fill-rule:evenodd;fill:rgb(6.666667%,64.313725%,83.921569%);fill-opacity:1;" d="M 31.550781 6.601562 L 47.558594 7.925781 C 48.332031 7.96875 48.207031 8.125 47.828125 8.484375 L 40.019531 16.121094 C 39.582031 16.605469 39.480469 16.46875 38.964844 15.898438 L 35.910156 12.441406 C 35.507812 12.019531 35.4375 11.925781 36.136719 11.679688 L 43.726562 9.238281 L 35.179688 10.761719 C 34.539062 10.894531 34.617188 10.984375 34.171875 10.347656 L 31.328125 7.09375 C 30.96875 6.703125 31.003906 6.511719 31.550781 6.601562 Z M 31.550781 6.601562 "/>
</g>
</svg>
