<?xml version="1.0" encoding="UTF-8"?>
<svg xmlns="http://www.w3.org/2000/svg" xmlns:xlink="http://www.w3.org/1999/xlink" width="70px" height="44px" viewBox="0 0 69 44" version="1.1">
<g id="surface1">
<path style=" stroke:none;fill-rule:nonzero;fill:rgb(99.607843%,99.607843%,100%);fill-opacity:1;" d="M 0 0 C 22.769531 0 45.539062 0 69 0 C 69 7.921875 69 15.839844 69 24 C 46.230469 24 23.460938 24 0 24 C 0 16.078125 0 8.160156 0 0 Z M 0 0 "/>
<path style=" stroke:none;fill-rule:nonzero;fill:rgb(0.392157%,60%,100%);fill-opacity:1;" d="M 30.433594 6.105469 C 30.503906 6.105469 30.578125 6.105469 30.652344 6.105469 C 31.742188 6.125 32.726562 6.441406 33.519531 7.222656 C 33.554688 7.292969 33.554688 7.292969 33.59375 7.367188 C 33.617188 7.007812 33.640625 6.644531 33.664062 6.273438 C 34.457031 6.273438 35.246094 6.273438 36.058594 6.273438 C 36.066406 7.945312 36.070312 9.621094 36.070312 11.292969 C 36.074219 12.070312 36.074219 12.847656 36.078125 13.621094 C 36.078125 14.300781 36.078125 14.976562 36.082031 15.65625 C 36.082031 16.011719 36.082031 16.371094 36.082031 16.730469 C 36.085938 17.070312 36.085938 17.40625 36.085938 17.746094 C 36.085938 17.867188 36.085938 17.992188 36.085938 18.113281 C 36.097656 19.714844 35.824219 21.191406 34.707031 22.402344 C 33.59375 23.480469 31.988281 23.945312 30.472656 23.933594 C 30.414062 23.933594 30.351562 23.933594 30.289062 23.933594 C 30.097656 23.933594 29.90625 23.933594 29.714844 23.929688 C 29.585938 23.929688 29.453125 23.929688 29.324219 23.929688 C 29.007812 23.929688 28.6875 23.929688 28.367188 23.925781 C 28.367188 23.179688 28.367188 22.433594 28.367188 21.664062 C 28.542969 21.664062 28.71875 21.664062 28.898438 21.664062 C 29.070312 21.660156 29.242188 21.65625 29.417969 21.65625 C 29.535156 21.652344 29.652344 21.652344 29.773438 21.652344 C 30.816406 21.648438 32.070312 21.554688 32.867188 20.789062 C 33.644531 19.933594 33.632812 18.8125 33.59375 17.726562 C 33.566406 17.761719 33.539062 17.792969 33.511719 17.828125 C 33.28125 18.113281 33.066406 18.324219 32.746094 18.511719 C 32.675781 18.550781 32.609375 18.589844 32.539062 18.632812 C 31.90625 18.921875 31.296875 19.003906 30.605469 19 C 30.523438 18.996094 30.445312 18.996094 30.363281 18.996094 C 29.003906 18.96875 27.789062 18.527344 26.804688 17.5625 C 25.625 16.222656 25.425781 14.394531 25.4375 12.675781 C 25.441406 12.496094 25.4375 12.316406 25.4375 12.132812 C 25.433594 10.34375 25.84375 8.65625 27.082031 7.320312 C 28.023438 6.410156 29.15625 6.097656 30.433594 6.105469 Z M 30.433594 6.105469 "/>
<path style=" stroke:none;fill-rule:nonzero;fill:rgb(0.784314%,60.392157%,100%);fill-opacity:1;" d="M 58.84375 1.53125 C 58.84375 2.230469 58.84375 2.929688 58.84375 3.648438 C 58.527344 3.660156 58.527344 3.660156 58.203125 3.675781 C 57.15625 3.691406 57.15625 3.691406 56.261719 4.164062 C 55.769531 4.828125 55.910156 5.410156 55.867188 6.273438 C 57.449219 6.273438 59.027344 6.273438 60.65625 6.273438 C 60.933594 7.148438 61.207031 8.019531 61.484375 8.894531 C 61.617188 9.328125 61.757812 9.757812 61.894531 10.191406 C 62.113281 10.878906 62.328125 11.566406 62.542969 12.253906 C 62.601562 12.449219 62.664062 12.644531 62.722656 12.839844 C 62.753906 12.9375 62.785156 13.03125 62.8125 13.128906 C 62.875 13.328125 62.9375 13.523438 63 13.722656 C 63.015625 13.769531 63.03125 13.820312 63.046875 13.871094 C 63.074219 13.96875 63.105469 14.066406 63.136719 14.164062 C 63.210938 14.398438 63.28125 14.636719 63.351562 14.871094 C 63.378906 14.957031 63.40625 15.042969 63.429688 15.132812 C 63.453125 15.207031 63.476562 15.285156 63.5 15.363281 C 63.542969 15.53125 63.542969 15.53125 63.632812 15.609375 C 63.648438 15.539062 63.667969 15.464844 63.691406 15.386719 C 63.871094 14.71875 64.066406 14.058594 64.28125 13.398438 C 64.460938 12.839844 64.632812 12.277344 64.792969 11.707031 C 64.96875 11.066406 65.167969 10.433594 65.375 9.796875 C 65.554688 9.242188 65.714844 8.683594 65.875 8.117188 C 66.253906 6.761719 66.253906 6.761719 66.460938 6.347656 C 67.273438 6.347656 68.089844 6.347656 68.925781 6.347656 C 68.765625 7.160156 68.765625 7.160156 68.621094 7.503906 C 68.460938 7.90625 68.320312 8.316406 68.1875 8.730469 C 68.167969 8.792969 68.148438 8.855469 68.128906 8.917969 C 68.066406 9.109375 68.003906 9.304688 67.945312 9.496094 C 67.488281 10.925781 67.488281 10.925781 67.332031 11.304688 C 67.085938 11.898438 66.910156 12.519531 66.714844 13.128906 C 66.257812 14.574219 66.257812 14.574219 66.03125 15.117188 C 65.820312 15.660156 65.65625 16.222656 65.480469 16.777344 C 65.011719 18.257812 65.011719 18.257812 64.785156 18.800781 C 64.652344 19.132812 64.550781 19.476562 64.441406 19.816406 C 63.976562 21.242188 63.464844 22.78125 62.078125 23.546875 C 61.066406 24.046875 59.945312 24.023438 58.84375 24 C 58.84375 23.324219 58.84375 22.652344 58.84375 21.957031 C 59.003906 21.949219 59.167969 21.941406 59.335938 21.933594 C 60.128906 21.886719 60.824219 21.753906 61.386719 21.144531 C 61.867188 20.546875 62.28125 19.671875 62.234375 18.894531 C 62.183594 18.472656 62.050781 18.078125 61.914062 17.675781 C 61.875 17.558594 61.875 17.558594 61.832031 17.433594 C 61.777344 17.265625 61.71875 17.097656 61.664062 16.929688 C 61.578125 16.675781 61.492188 16.417969 61.40625 16.164062 C 61.351562 16 61.296875 15.835938 61.242188 15.671875 C 61.214844 15.59375 61.191406 15.519531 61.164062 15.441406 C 61.054688 15.109375 60.9375 14.777344 60.804688 14.453125 C 60.621094 14 60.472656 13.53125 60.320312 13.066406 C 60.289062 12.96875 60.257812 12.871094 60.226562 12.773438 C 60.144531 12.523438 60.0625 12.269531 59.980469 12.015625 C 59.882812 11.710938 59.78125 11.40625 59.683594 11.101562 C 59.605469 10.863281 59.527344 10.625 59.453125 10.386719 C 59.421875 10.300781 59.394531 10.214844 59.367188 10.125 C 59.339844 10.042969 59.3125 9.960938 59.285156 9.875 C 59.230469 9.707031 59.175781 9.542969 59.121094 9.378906 C 59.09375 9.300781 59.066406 9.222656 59.039062 9.140625 C 59.015625 9.070312 58.992188 9 58.964844 8.929688 C 58.914062 8.753906 58.914062 8.753906 58.914062 8.535156 C 57.886719 8.535156 56.855469 8.535156 55.796875 8.535156 C 55.796875 12 55.796875 15.46875 55.796875 19.039062 C 55.003906 19.039062 54.214844 19.039062 53.402344 19.039062 C 53.402344 15.574219 53.402344 12.105469 53.402344 8.535156 C 52.753906 8.535156 52.109375 8.535156 51.441406 8.535156 C 51.441406 7.789062 51.441406 7.042969 51.441406 6.273438 C 52.089844 6.273438 52.734375 6.273438 53.402344 6.273438 C 53.394531 6.042969 53.390625 5.816406 53.386719 5.582031 C 53.382812 4.449219 53.496094 3.300781 54.28125 2.417969 C 55.519531 1.304688 57.308594 1.511719 58.84375 1.53125 Z M 58.84375 1.53125 "/>
<path style=" stroke:none;fill-rule:nonzero;fill:rgb(0.784314%,60%,100%);fill-opacity:1;" d="M 10.304688 6.273438 C 10.359375 6.289062 10.417969 6.304688 10.480469 6.320312 C 11.5625 6.648438 12.441406 7.289062 13.058594 8.242188 C 13.175781 8.457031 13.269531 8.671875 13.351562 8.898438 C 13.375 8.96875 13.398438 9.035156 13.425781 9.105469 C 13.539062 9.511719 13.515625 9.929688 13.511719 10.34375 C 13.511719 10.4375 13.511719 10.53125 13.511719 10.628906 C 13.511719 10.882812 13.511719 11.136719 13.511719 11.390625 C 13.507812 11.660156 13.507812 11.925781 13.507812 12.191406 C 13.507812 12.695312 13.507812 13.199219 13.503906 13.703125 C 13.503906 14.277344 13.503906 14.851562 13.503906 15.425781 C 13.5 16.605469 13.5 17.785156 13.496094 18.964844 C 12.730469 18.964844 11.964844 18.964844 11.171875 18.964844 C 11.171875 18.558594 11.171875 18.148438 11.171875 17.726562 C 11.125 17.726562 11.078125 17.726562 11.027344 17.726562 C 11.003906 17.796875 10.980469 17.871094 10.957031 17.945312 C 9.730469 19.050781 8.132812 19.269531 6.550781 19.195312 C 5.558594 19.128906 4.503906 18.628906 3.84375 17.871094 C 3.125 16.886719 3.003906 15.730469 3.152344 14.546875 C 3.355469 13.546875 3.878906 12.714844 4.714844 12.136719 C 5.179688 11.832031 5.632812 11.605469 6.167969 11.453125 C 6.234375 11.433594 6.304688 11.414062 6.375 11.394531 C 7.320312 11.167969 8.277344 11.210938 9.246094 11.21875 C 9.425781 11.222656 9.605469 11.222656 9.789062 11.222656 C 10.226562 11.226562 10.664062 11.230469 11.101562 11.234375 C 11.09375 11.015625 11.085938 10.800781 11.078125 10.582031 C 11.078125 10.519531 11.074219 10.460938 11.074219 10.398438 C 11.046875 9.789062 10.925781 9.246094 10.5 8.789062 C 9.808594 8.1875 8.863281 8.1875 7.996094 8.230469 C 7.421875 8.28125 6.855469 8.550781 6.457031 8.972656 C 6.179688 9.382812 6.050781 9.804688 5.976562 10.289062 C 5.949219 10.429688 5.949219 10.429688 5.878906 10.503906 C 5.703125 10.511719 5.535156 10.511719 5.363281 10.511719 C 5.285156 10.511719 5.285156 10.511719 5.207031 10.511719 C 5.042969 10.511719 4.875 10.511719 4.710938 10.507812 C 4.601562 10.507812 4.488281 10.507812 4.378906 10.507812 C 4.101562 10.507812 3.828125 10.507812 3.554688 10.503906 C 3.554688 10.378906 3.550781 10.25 3.550781 10.125 C 3.550781 10.054688 3.550781 9.984375 3.550781 9.910156 C 3.558594 9.605469 3.617188 9.335938 3.699219 9.046875 C 3.71875 8.984375 3.734375 8.921875 3.75 8.855469 C 4.050781 7.894531 4.722656 7.152344 5.589844 6.660156 C 7.003906 5.953125 8.789062 5.84375 10.304688 6.273438 Z M 10.304688 6.273438 "/>
<path style=" stroke:none;fill-rule:nonzero;fill:rgb(0.392157%,60%,100%);fill-opacity:1;" d="M 23.332031 7.175781 C 24.167969 7.996094 24.566406 8.953125 24.601562 10.125 C 24.605469 10.359375 24.605469 10.59375 24.605469 10.824219 C 24.605469 10.914062 24.605469 11.003906 24.605469 11.09375 C 24.605469 11.332031 24.605469 11.574219 24.605469 11.8125 C 24.601562 12.066406 24.601562 12.316406 24.601562 12.570312 C 24.601562 13.046875 24.601562 13.519531 24.601562 13.996094 C 24.601562 14.539062 24.601562 15.082031 24.601562 15.625 C 24.597656 16.738281 24.597656 17.851562 24.597656 18.964844 C 23.804688 18.964844 23.015625 18.964844 22.203125 18.964844 C 22.199219 18.710938 22.199219 18.457031 22.199219 18.195312 C 22.195312 17.351562 22.191406 16.507812 22.183594 15.664062 C 22.179688 15.15625 22.179688 14.644531 22.175781 14.132812 C 22.175781 13.640625 22.171875 13.148438 22.167969 12.652344 C 22.167969 12.464844 22.167969 12.277344 22.164062 12.089844 C 22.164062 11.824219 22.164062 11.5625 22.160156 11.296875 C 22.160156 11.222656 22.160156 11.144531 22.160156 11.0625 C 22.152344 10.289062 21.960938 9.585938 21.476562 8.972656 C 20.9375 8.46875 20.3125 8.242188 19.582031 8.21875 C 18.777344 8.25 18.085938 8.515625 17.527344 9.113281 C 17.15625 9.609375 16.972656 10.183594 16.964844 10.800781 C 16.964844 10.871094 16.964844 10.945312 16.964844 11.019531 C 16.964844 11.097656 16.964844 11.175781 16.964844 11.257812 C 16.960938 11.339844 16.960938 11.421875 16.960938 11.507812 C 16.957031 11.785156 16.957031 12.058594 16.953125 12.335938 C 16.953125 12.523438 16.953125 12.714844 16.949219 12.90625 C 16.945312 13.359375 16.945312 13.808594 16.941406 14.257812 C 16.9375 14.773438 16.933594 15.285156 16.929688 15.800781 C 16.921875 16.855469 16.914062 17.910156 16.90625 18.964844 C 16.117188 18.964844 15.324219 18.964844 14.511719 18.964844 C 14.511719 14.777344 14.511719 10.589844 14.511719 6.273438 C 15.324219 6.273438 16.140625 6.273438 16.976562 6.273438 C 17.015625 6.816406 17.015625 6.816406 17.050781 7.367188 C 17.125 7.28125 17.199219 7.195312 17.277344 7.109375 C 18.828125 5.554688 21.753906 5.8125 23.332031 7.175781 Z M 23.332031 7.175781 "/>
<path style=" stroke:none;fill-rule:nonzero;fill:rgb(0.784314%,60%,100%);fill-opacity:1;" d="M 37.074219 6.273438 C 37.867188 6.273438 38.65625 6.273438 39.46875 6.273438 C 39.472656 6.53125 39.472656 6.785156 39.472656 7.046875 C 39.472656 7.894531 39.480469 8.742188 39.484375 9.589844 C 39.484375 10.105469 39.488281 10.617188 39.488281 11.132812 C 39.492188 11.628906 39.492188 12.125 39.496094 12.621094 C 39.496094 12.808594 39.5 13 39.5 13.1875 C 39.453125 14.835938 39.453125 14.835938 40.140625 16.289062 C 40.785156 16.914062 41.433594 17.03125 42.296875 17.027344 C 42.972656 17.015625 43.519531 16.863281 44.035156 16.402344 C 44.484375 15.902344 44.699219 15.246094 44.707031 14.582031 C 44.707031 14.507812 44.707031 14.433594 44.707031 14.359375 C 44.707031 14.277344 44.707031 14.199219 44.707031 14.117188 C 44.710938 14.03125 44.710938 13.945312 44.710938 13.859375 C 44.714844 13.578125 44.714844 13.300781 44.71875 13.019531 C 44.71875 12.824219 44.71875 12.632812 44.722656 12.4375 C 44.726562 11.980469 44.726562 11.519531 44.730469 11.0625 C 44.734375 10.539062 44.738281 10.015625 44.742188 9.496094 C 44.75 8.421875 44.757812 7.347656 44.765625 6.273438 C 45.558594 6.273438 46.347656 6.273438 47.160156 6.273438 C 47.167969 7.492188 47.171875 8.710938 47.175781 9.929688 C 47.175781 10.496094 47.179688 11.0625 47.183594 11.628906 C 47.1875 12.121094 47.1875 12.617188 47.1875 13.109375 C 47.1875 13.371094 47.1875 13.632812 47.191406 13.894531 C 47.195312 14.183594 47.195312 14.476562 47.195312 14.769531 C 47.195312 14.855469 47.195312 14.941406 47.195312 15.027344 C 47.191406 16.078125 46.886719 17.027344 46.179688 17.808594 C 45.789062 18.183594 45.3125 18.425781 44.839844 18.675781 C 44.769531 18.714844 44.699219 18.75 44.625 18.792969 C 43.300781 19.40625 41.414062 19.417969 40.046875 18.949219 C 39.003906 18.550781 37.996094 17.976562 37.480469 16.9375 C 37.140625 16.160156 37.054688 15.449219 37.058594 14.605469 C 37.058594 14.515625 37.058594 14.421875 37.058594 14.332031 C 37.058594 14.085938 37.058594 13.839844 37.0625 13.59375 C 37.0625 13.335938 37.0625 13.078125 37.0625 12.820312 C 37.0625 12.332031 37.0625 11.847656 37.066406 11.359375 C 37.066406 10.804688 37.066406 10.25 37.070312 9.695312 C 37.070312 8.554688 37.074219 7.414062 37.074219 6.273438 Z M 37.074219 6.273438 "/>
<path style=" stroke:none;fill-rule:nonzero;fill:rgb(99.215686%,99.607843%,100%);fill-opacity:1;" d="M 66.460938 6.273438 C 67.296875 6.273438 68.136719 6.273438 69 6.273438 C 69 12.125 69 17.972656 69 24 C 66.101562 24 63.207031 24 60.222656 24 C 60.222656 23.976562 60.222656 23.953125 60.222656 23.925781 C 60.304688 23.917969 60.386719 23.90625 60.472656 23.898438 C 61.378906 23.777344 62.304688 23.566406 62.9375 22.839844 C 63.789062 21.691406 64.203125 20.347656 64.636719 19 C 64.746094 18.65625 64.859375 18.3125 65 17.976562 C 65.246094 17.375 65.429688 16.742188 65.625 16.121094 C 66.085938 14.679688 66.085938 14.679688 66.308594 14.136719 C 66.519531 13.589844 66.683594 13.03125 66.859375 12.472656 C 67.320312 11.027344 67.320312 11.027344 67.546875 10.480469 C 67.742188 9.972656 67.894531 9.445312 68.0625 8.921875 C 68.136719 8.683594 68.214844 8.441406 68.289062 8.203125 C 68.308594 8.148438 68.324219 8.09375 68.34375 8.039062 C 68.417969 7.796875 68.5 7.570312 68.601562 7.339844 C 68.734375 7.015625 68.828125 6.679688 68.925781 6.347656 C 68.113281 6.347656 67.300781 6.347656 66.460938 6.347656 C 66.460938 6.324219 66.460938 6.296875 66.460938 6.273438 Z M 66.460938 6.273438 "/>
<path style=" stroke:none;fill-rule:nonzero;fill:rgb(99.215686%,99.607843%,100%);fill-opacity:1;" d="M 32.359375 8.535156 C 33.046875 9.046875 33.410156 9.589844 33.59375 10.429688 C 33.660156 10.894531 33.679688 11.351562 33.679688 11.820312 C 33.679688 11.886719 33.679688 11.953125 33.679688 12.023438 C 33.683594 12.167969 33.683594 12.308594 33.683594 12.453125 C 33.683594 12.667969 33.6875 12.882812 33.6875 13.097656 C 33.695312 14.230469 33.664062 15.378906 32.878906 16.273438 C 32.1875 16.925781 31.402344 17.035156 30.488281 17.015625 C 29.777344 16.984375 29.226562 16.621094 28.730469 16.121094 C 28.140625 15.351562 27.921875 14.464844 27.917969 13.515625 C 27.917969 13.445312 27.917969 13.378906 27.917969 13.308594 C 27.917969 13.160156 27.917969 13.015625 27.917969 12.871094 C 27.914062 12.648438 27.914062 12.429688 27.910156 12.207031 C 27.902344 10.828125 27.902344 10.828125 28.152344 10.210938 C 28.183594 10.128906 28.214844 10.046875 28.25 9.964844 C 28.667969 9.128906 29.160156 8.542969 30.0625 8.234375 C 30.859375 8.042969 31.652344 8.101562 32.359375 8.535156 Z M 32.359375 8.535156 "/>
<path style=" stroke:none;fill-rule:nonzero;fill:rgb(0%,60%,100%);fill-opacity:1;" d="M 0 1.53125 C 0.789062 1.53125 1.582031 1.53125 2.394531 1.53125 C 2.394531 7.285156 2.394531 13.039062 2.394531 18.964844 C 1.605469 18.964844 0.8125 18.964844 0 18.964844 C 0 13.214844 0 7.460938 0 1.53125 Z M 0 1.53125 "/>
<path style=" stroke:none;fill-rule:nonzero;fill:rgb(1.176471%,60.392157%,100%);fill-opacity:1;" d="M 48.320312 6.273438 C 49.113281 6.273438 49.902344 6.273438 50.714844 6.273438 C 50.714844 10.484375 50.714844 14.699219 50.714844 19.039062 C 49.925781 19.039062 49.136719 19.039062 48.320312 19.039062 C 48.320312 14.828125 48.320312 10.613281 48.320312 6.273438 Z M 48.320312 6.273438 "/>
<path style=" stroke:none;fill-rule:nonzero;fill:rgb(99.215686%,99.607843%,100%);fill-opacity:1;" d="M 9.6875 13.117188 C 9.824219 13.117188 9.960938 13.117188 10.101562 13.121094 C 10.433594 13.121094 10.765625 13.125 11.101562 13.128906 C 11.113281 13.429688 11.121094 13.726562 11.125 14.027344 C 11.128906 14.125 11.128906 14.226562 11.132812 14.328125 C 11.160156 15.097656 11.054688 15.617188 10.53125 16.199219 C 9.90625 16.828125 8.957031 17.15625 8.082031 17.167969 C 8.027344 17.167969 7.972656 17.167969 7.917969 17.164062 C 7.859375 17.164062 7.804688 17.164062 7.742188 17.164062 C 7.019531 17.148438 6.488281 16.984375 5.949219 16.484375 C 5.554688 16.058594 5.480469 15.675781 5.492188 15.105469 C 5.542969 14.574219 5.78125 14.183594 6.171875 13.828125 C 7.167969 13.027344 8.472656 13.101562 9.6875 13.117188 Z M 9.6875 13.117188 "/>
<path style=" stroke:none;fill-rule:nonzero;fill:rgb(1.176471%,60.392157%,100%);fill-opacity:1;" d="M 50.195312 0.152344 C 50.363281 0.261719 50.5 0.371094 50.644531 0.511719 C 50.683594 0.550781 50.726562 0.589844 50.769531 0.628906 C 51.183594 1.058594 51.382812 1.582031 51.40625 2.175781 C 51.367188 3.175781 50.941406 4.039062 50.230469 4.726562 C 49.851562 5.054688 49.429688 5.269531 48.976562 5.472656 C 48.761719 5.230469 48.648438 5.0625 48.613281 4.742188 C 48.652344 4.722656 48.695312 4.699219 48.738281 4.679688 C 49.339844 4.371094 49.703125 3.996094 49.941406 3.359375 C 50.042969 2.902344 50.011719 2.433594 49.992188 1.96875 C 49.773438 2.003906 49.773438 2.003906 49.554688 2.042969 C 49.566406 2.082031 49.578125 2.125 49.589844 2.164062 C 49.71875 2.738281 49.636719 3.207031 49.378906 3.726562 C 49.265625 3.867188 49.265625 3.867188 49.09375 3.933594 C 48.695312 3.945312 48.335938 3.714844 48.042969 3.460938 C 47.589844 2.964844 47.390625 2.421875 47.417969 1.75 C 47.511719 1.128906 47.839844 0.734375 48.300781 0.335938 C 48.816406 -0.0273438 49.613281 -0.0742188 50.195312 0.152344 Z M 50.195312 0.152344 "/>
</g>
</svg>
